<svg xmlns="http://www.w3.org/2000/svg" width="2500" height="1875" viewBox="0 0 24 24"><path d="M 22.2235 5.8311 L 12.2307 0.0619 a 0.4617 0.4617 0 0 0 -0.4615 0 L 1.7765 5.8311 a 0.4615 0.4615 0 0 0 -0.2308 0.3997 v 11.5385 c 0 0.1649 0.088 0.3173 0.2308 0.3997 l 9.9928 5.7692 a 0.4617 0.4617 0 0 0 0.4615 0 l 9.9928 -5.7692 a 0.4615 0.4615 0 0 0 0.2308 -0.3997 V 6.2308 a 0.4618 0.4618 0 0 0 -0.2309 -0.3997 Z m -0.6304 11.7074 L 12 23.0769 l -9.5931 -5.5385 V 6.4615 L 12 0.9231 l 9.5931 5.5385 v 11.0769 Z M 11.2957 8.1858 c 0.3873 -0.2769 0.7918 -0.4965 1.2137 -0.6588 s 0.8427 -0.2434 1.2624 -0.2434 c 0.2596 0 0.5019 0.0379 0.7269 0.1136 c 0.225 0.0757 0.4197 0.185 0.5841 0.3278 s 0.2942 0.3202 0.3894 0.5322 c 0.0952 0.212 0.1428 0.4543 0.1428 0.7269 c 0 0.3288 -0.0649 0.6555 -0.1947 0.98 c -0.1298 0.3245 -0.304 0.6252 -0.5225 0.9022 s -0.4706 0.5192 -0.7561 0.7269 s -0.582 0.357 -0.8892 0.4478 l -0.1363 -0.2272 a 2.0872 2.0872 0 0 0 0.4998 -0.3505 a 2.2747 2.2747 0 0 0 0.3894 -0.4835 c 0.1082 -0.1796 0.1915 -0.37 0.2499 -0.5712 a 2.1893 2.1893 0 0 0 0.0876 -0.6133 c 0 -0.238 -0.0346 -0.463 -0.1038 -0.675 c -0.0692 -0.212 -0.1709 -0.397 -0.305 -0.5549 c -0.1341 -0.1579 -0.2996 -0.2823 -0.4965 -0.3732 c -0.1969 -0.0909 -0.423 -0.1363 -0.6782 -0.1363 c -0.3115 0 -0.5971 0.0606 -0.8567 0.1817 c -0.2596 0.1212 -0.4933 0.2845 -0.701 0.49 s -0.3883 0.4413 -0.5419 0.7075 a 4.874 4.874 0 0 0 -0.3829 0.8373 a 5.6168 5.6168 0 0 0 -0.2304 0.8859 c -0.0519 0.2986 -0.0779 0.5798 -0.0779 0.8438 c 0 0.2683 0.0281 0.5452 0.0844 0.8308 s 0.1385 0.5668 0.2466 0.8438 c 0.1082 0.2769 0.2423 0.5387 0.4024 0.7853 c 0.1601 0.2466 0.3451 0.463 0.5549 0.649 a 2.583 2.583 0 0 0 0.701 0.4446 c 0.2575 0.1103 0.5376 0.1655 0.8405 0.1655 c 0.2077 0 0.41 -0.0281 0.6069 -0.0844 a 2.9874 2.9874 0 0 0 0.5679 -0.2272 a 3.2094 3.2094 0 0 0 0.516 -0.3375 a 3.9668 3.9668 0 0 0 0.4511 -0.4219 l 0.2142 0.2077 c -0.1904 0.251 -0.4165 0.4922 -0.6782 0.7237 a 5.5434 5.5434 0 0 1 -0.847 0.6166 a 4.6241 4.6241 0 0 1 -0.9508 0.4284 c -0.331 0.106 -0.6588 0.159 -0.9833 0.159 c -0.3159 0 -0.6133 -0.0552 -0.8924 -0.1655 c -0.2791 -0.1103 -0.5355 -0.2596 -0.7691 -0.4478 s -0.4424 -0.4089 -0.6263 -0.662 c -0.1839 -0.2531 -0.3397 -0.5225 -0.4673 -0.8081 s -0.225 -0.5798 -0.2921 -0.8827 s -0.101 -0.5992 -0.101 -0.8891 c 0 -0.4197 0.0703 -0.8513 0.2109 -1.2948 s 0.3343 -0.874 0.5809 -1.2916 s 0.5376 -0.8124 0.873 -1.1845 c 0.3353 -0.3721 0.6966 -0.6967 1.0839 -0.9736 Z" fill="#A0522D"/></svg>