<svg xmlns="http://www.w3.org/2000/svg" width="2500" height="1875" viewBox="0 0 128 128"><path d="M 92.2 8.3 c -1 -0.6 -2 -1.2 -3 -1.7 c -1.1 -0.5 -2.2 -1 -3.3 -1.5 c -0.4 -0.1 -0.7 -0.3 -1.1 -0.4 c -1 -0.4 -1.9 -0.8 -2.9 -1.1 c -5.4 -1.8 -11.1 -2.7 -17.1 -2.7 C 34.3 0.9 9.7 25.6 9.7 56.1 c 0 26.9 19.2 49.2 44.5 54.2 v 15.8 c 32.9 -5 62.1 -31.2 64.3 -65.6 C 119.8 39.7 109.5 18.5 92.2 8.3 Z M 51.6 21.6 c 1.8 -0.2 3.8 0.5 5.1 2.1 c 1 1 1.6 2.3 2.3 3.7 c 2 4.7 1.3 9.8 -1.4 13.5 c -4.7 -1 -9 -4 -11 -8.7 c -0.7 -1.3 -1.1 -3.1 -1.1 -4.4 C 45.6 24.4 48.5 21.9 51.6 21.6 Z M 35.1 37.9 c 0.4 0 0.7 0 1.1 0 c 1.7 0 3 0.4 4.7 1.1 c 4.7 2 8.1 6 9.1 10.4 c -4 2.7 -9.5 3.4 -14.2 1.4 c -1.3 -0.7 -2.6 -1.4 -4 -2.4 C 27.4 44.8 29.8 38.1 35.1 37.9 Z M 36.2 72.6 c -6.1 0.3 -9 -6.7 -4.6 -10.4 c 1 -1 2.3 -1.7 4 -2.4 c 1.8 -0.8 3.6 -1.1 5.5 -1.2 c 3.1 -0.1 6.1 0.8 8.6 2.5 c -0.7 4.4 -4 8.4 -8.7 10.4 C 39.5 72.3 37.8 72.6 36.2 72.6 Z M 59.4 82.4 c -0.7 1.3 -1.3 2.7 -2.3 4 c -3.4 4.4 -11.2 1.3 -10.8 -4.4 c 0 -1.3 0.4 -3 1.1 -4.3 c 2 -4.7 6 -7.7 10.7 -8.7 C 60.7 73 61.4 78.1 59.4 82.4 Z M 68.5 27.4 c 0.7 -1.3 1.3 -2.7 2.3 -4 c 1.4 -1.6 3.4 -2.3 5.3 -2.1 c 3.1 0.3 6.1 2.8 5.9 6.4 c 0 1.3 -0.4 3.1 -1.1 4.4 c -2 4.7 -6 7.7 -10.7 8.7 C 67.2 37.2 66.5 32.2 68.5 27.4 Z M 71.5 86.4 c -1 -1 -1.6 -2.3 -2.3 -3.7 c -2 -4.7 -1.3 -9.8 1.4 -13.5 c 4.7 1 9 4 11 8.7 c 0.7 1.3 1.1 3.1 1.1 4.4 C 82.9 87.5 75.2 90.5 71.5 86.4 Z M 92.1 72.3 c -1.7 0 -3 -0.4 -4.7 -1.1 c -4.7 -2 -8.1 -6 -9.1 -10.4 c 2.5 -1.7 5.6 -2.6 8.7 -2.5 c 1.8 0 3.7 0.4 5.5 1.2 c 1.3 0.7 2.6 1.3 4 2.3 C 101.1 65.2 98.1 72.7 92.1 72.3 Z" fill="#2E8B57"/></svg>