<svg xmlns="http://www.w3.org/2000/svg" width="2500" height="1875" viewBox="0 0 128 128">
<path d="M 126.615 72.31 l -7.034 -21.647 L 105.64 7.76 c -0.716 -2.206 -3.84 -2.206 -4.556 0 l -13.94 42.903 H 40.856 L 26.916 7.76 c -0.717 -2.206 -3.84 -2.206 -4.557 0 L 8.42 50.664 L 1.385 72.31 a 4.792 4.792 0 0 0 1.74 5.358 L 64 121.894 l 60.874 -44.227 a 4.793 4.793 0 0 0 1.74 -5.357" fill="##FC6D26"/>
<path d="M 64 121.894 l 23.144 -71.23 H 40.856 L 64 121.893 Z" fill="#E24329"/>
<path d="M 64 121.894 l -23.144 -71.23 H 8.42 L 64 121.893 Z" fill="#FC6D26"/>
<path d="M 8.42 50.663 L 1.384 72.31 a 4.79 4.79 0 0 0 1.74 5.357 L 64 121.894 L 8.42 50.664 Z" fill="#FCA326"/>
<path d="M 8.42 50.663 h 32.436 L 26.916 7.76 c -0.717 -2.206 -3.84 -2.206 -4.557 0 L 8.42 50.664 " fill="#E24329"/>
<path d="M 64 121.894 l 23.144 -71.23 h 32.437 L 64 121.893 Z" fill="#FC6D26"/>
<path d="M 119.58 50.663 l 7.035 21.647 a 4.79 4.79 0 0 1 -1.74 5.357 L 64 121.894 l 55.58 -71.23 Z" fill="#FCA326"/>
<path d="M 119.58 50.663 H 87.145 l 13.94 -42.902 c 0.717 -2.206 3.84 -2.206 4.557 0 l 13.94 42.903 Z" fill="#E24329"/>

</svg>