<svg xmlns="http://www.w3.org/2000/svg" width="2500" height="1875" viewBox="0 0 24 24"><path d="M 2.872 24 h -0.975 a 3.866 3.866 0 0 1 -0.07 -0.197 c -0.215 -0.666 -0.594 -1.49 -0.692 -2.154 c -0.146 -0.984 0.78 -1.039 1.374 -1.465 c 0.915 -0.66 1.635 -1.025 2.627 -1.62 c 0.295 -0.179 1.182 -0.624 1.281 -0.829 c 0.201 -0.408 -0.345 -0.982 -0.49 -1.3 c -0.225 -0.507 -0.345 -0.937 -0.376 -1.435 c -0.824 -0.13 -1.455 -0.627 -1.844 -1.185 c -0.63 -0.925 -1.066 -2.635 -0.525 -3.936 c 0.045 -0.103 0.254 -0.305 0.285 -0.463 c 0.06 -0.308 -0.105 -0.72 -0.12 -1.048 c -0.06 -1.692 0.284 -3.15 1.425 -3.66 c 0.463 -1.84 2.113 -2.453 3.673 -3.367 c 0.58 -0.342 1.224 -0.562 1.89 -0.807 c 2.372 -0.877 6.027 -0.712 7.994 0.783 c 0.836 0.633 2.176 1.97 2.656 2.939 c 1.262 2.555 1.17 6.825 0.287 9.934 c -0.12 0.421 -0.29 1.032 -0.533 1.533 c -0.168 0.35 -0.689 1.05 -0.625 1.36 c 0.064 0.314 1.19 1.17 1.432 1.395 c 0.434 0.422 1.26 0.975 1.324 1.5 c 0.07 0.557 -0.248 1.336 -0.41 1.875 c -0.217 0.721 -0.436 1.441 -0.654 2.131 H 2.87 Z m 11.104 -3.54 c -0.545 -0.3 -1.361 -0.622 -2.065 -0.757 c -0.87 -0.164 -0.78 1.188 -0.75 1.994 c 0.03 0.643 0.36 1.316 0.51 1.744 c 0.076 0.197 0.09 0.41 0.256 0.449 c 0.3 0.068 1.29 -0.326 1.575 -0.479 c 0.6 -0.328 1.064 -0.844 1.574 -1.189 c 0.016 -0.17 0.016 -0.34 0.03 -0.508 a 2.648 2.648 0 0 0 -1.095 -0.277 c 0.314 -0.15 0.75 -0.15 1.035 -0.332 l 0.016 -0.193 c -0.496 -0.03 -0.69 -0.254 -1.021 -0.436 Z m 7.454 2.935 a 17.78 17.78 0 0 0 0.465 -1.752 c 0.06 -0.287 0.215 -0.918 0.178 -1.176 c -0.059 -0.459 -0.684 -0.799 -1.004 -1.086 c -0.584 -0.525 -0.95 -0.975 -1.56 -1.469 c -0.249 0.375 -0.78 0.615 -0.983 0.914 c 1.447 -0.689 1.71 2.625 1.141 3.69 c 0.09 0.329 0.391 0.45 0.514 0.735 l -0.086 0.166 h 1.29 c 0.013 0 0.03 0 0.044 0.014 Z m -6.634 -0.012 c -0.05 -0.074 -0.1 -0.135 -0.15 -0.209 l -0.301 0.195 h 0.45 Z m 2.77 0 c 0.008 -0.209 0.018 -0.404 0.03 -0.598 c -0.53 0.029 -0.825 -0.48 -1.196 -0.527 c -0.324 -0.045 -0.6 0.361 -1.02 0.195 c -0.095 0.105 -0.183 0.227 -0.284 0.316 c 0.154 0.18 0.295 0.375 0.424 0.584 h 0.815 c 0.014 -0.164 0.135 -0.285 0.3 -0.285 c 0.165 0 0.284 0.121 0.284 0.27 h 0.66 Z m 2.116 0 c -0.314 -0.479 -0.947 -0.898 -1.68 -0.555 l -0.03 0.541 h 1.71 Z m -8.51 0 l -0.104 -0.344 c -0.225 -0.72 -0.36 -1.26 -0.405 -1.68 c -0.914 -0.436 -1.875 -0.87 -2.654 -1.426 c -0.15 -0.105 -1.109 -1.35 -1.23 -1.305 c -1.739 0.676 -3.359 1.86 -4.814 2.984 c 0.256 0.557 0.48 1.141 0.69 1.74 h 8.505 Z m 8.265 -2.113 c -0.029 -0.512 -0.164 -1.56 -0.48 -1.74 c -0.66 -0.39 -1.846 0.78 -2.34 0.943 c 0.045 0.15 0.135 0.271 0.15 0.48 c 0.285 -0.074 0.645 -0.029 0.898 0.092 c -0.299 0.03 -0.629 0.03 -0.824 0.164 c -0.074 0.195 0.016 0.48 -0.029 0.764 c 0.69 0.197 1.5 0.303 2.385 0.332 c 0.164 -0.227 0.225 -0.645 0.211 -1.082 Z m -4.08 -0.36 c -0.044 0.375 0.046 0.51 0.12 0.943 c 1.26 0.391 1.034 -1.74 -0.135 -0.959 Z M 8.76 19.5 c -0.45 0.457 1.27 1.082 1.814 1.115 c 0 -0.29 0.165 -0.564 0.135 -0.77 c -0.65 -0.118 -1.502 -0.042 -1.945 -0.347 Z m 5.565 0.215 c 0 0.043 -0.061 0.03 -0.068 0.064 c 0.58 0.451 1.014 0.545 1.802 0.51 c 0.354 -0.262 0.67 -0.563 1.043 -0.807 c -0.855 0.074 -1.931 0.607 -2.774 0.23 Z m 3.42 -17.726 c -1.606 -0.906 -4.35 -1.591 -6.076 -0.731 c -1.38 0.692 -3.27 1.84 -3.899 3.292 c 0.6 1.402 -0.166 2.686 -0.226 4.109 c -0.018 0.757 0.36 1.42 0.391 2.242 c -0.2 0.338 -0.825 0.38 -1.26 0.356 c -0.146 -0.729 -0.4 -1.549 -1.155 -1.63 c -1.064 -0.116 -1.845 0.764 -1.89 1.683 c -0.06 1.08 0.833 2.864 2.085 2.745 c 0.488 -0.046 0.608 -0.54 1.139 -0.54 c 0.285 0.57 -0.445 0.75 -0.523 1.154 c -0.016 0.105 0.06 0.511 0.104 0.705 c 0.233 0.944 0.744 2.16 1.245 2.88 c 0.635 0.9 1.884 1.051 3.229 1.141 c 0.24 -0.525 1.125 -0.48 1.706 -0.346 c -0.691 -0.27 -1.336 -0.945 -1.875 -1.529 c -0.615 -0.676 -1.23 -1.41 -1.261 -2.28 c 1.155 1.604 2.1 3 4.2 3.704 c 1.59 0.525 3.45 -0.254 4.664 -1.109 c 0.51 -0.359 0.811 -0.93 1.17 -1.439 c 1.35 -1.936 1.98 -4.71 1.846 -7.394 c -0.06 -1.111 -0.06 -2.221 -0.436 -2.955 c -0.389 -0.781 -1.695 -1.471 -2.475 -0.781 c -0.15 -0.764 0.63 -1.23 1.545 -0.96 c -0.66 -0.854 -1.336 -1.858 -2.266 -2.384 Z M 13.58 14.896 c 0.615 1.544 2.724 1.363 4.505 1.323 c -0.084 0.194 -0.256 0.435 -0.465 0.515 c -0.57 0.232 -2.145 0.408 -2.937 -0.012 c -0.506 -0.27 -0.824 -0.873 -1.102 -1.227 c -0.137 -0.172 -0.795 -0.608 -0.012 -0.609 Z m 0.164 -0.87 c 0.893 0.464 2.52 0.517 3.731 0.48 c 0.066 0.267 0.066 0.593 0.068 0.913 c -1.55 0.08 -3.386 -0.304 -3.794 -1.395 h -0.005 Z m 6.675 -0.586 c -0.473 0.9 -1.145 1.897 -2.539 1.928 c -0.023 -0.284 -0.045 -0.735 0 -0.904 c 1.064 -0.103 1.727 -0.646 2.543 -1.017 Z m -0.649 -0.667 c -1.02 0.66 -2.154 1.375 -3.824 1.21 c -0.351 -0.31 -0.485 -1 -0.14 -1.458 c 0.181 0.313 0.06 0.885 0.57 0.97 c 0.944 0.165 2.038 -0.579 2.73 -0.84 c 0.42 -0.713 -0.046 -0.976 -0.42 -1.433 c -0.782 -0.93 -1.83 -2.1 -1.802 -3.51 c 0.314 -0.224 0.346 0.346 0.391 0.45 c 0.404 0.96 1.424 2.175 2.174 3 c 0.18 0.21 0.48 0.39 0.51 0.524 c 0.092 0.39 -0.254 0.854 -0.209 1.11 Z m -13.439 -0.675 c -0.314 -0.184 -0.393 -0.99 -0.768 -1.01 c -0.535 -0.03 -0.438 1.05 -0.436 1.68 c -0.37 -0.33 -0.435 -1.365 -0.164 -1.89 c -0.308 -0.15 -0.445 0.164 -0.618 0.284 c 0.22 -1.59 2.34 -0.734 1.99 0.96 Z M 4.713 5.995 c -0.685 0.756 -0.54 2.174 -0.459 3.188 c 1.244 -0.785 2.898 0.06 2.883 1.394 c 0.595 -0.016 0.223 -0.744 0.115 -1.215 c -0.353 -1.528 0.592 -3.187 0.041 -4.59 c -1.064 0.084 -1.939 0.52 -2.578 1.215 Z m 9.12 1.113 c 0.307 0.562 0.404 1.148 0.84 1.57 c 0.195 0.19 0.574 0.424 0.387 0.95 c -0.045 0.121 -0.365 0.391 -0.551 0.45 c -0.674 0.195 -2.254 0.03 -1.721 -0.81 c 0.563 0.015 1.314 0.36 1.732 -0.045 c -0.314 -0.524 -0.885 -1.53 -0.674 -2.13 Z m 6.198 -0.013 h 0.068 c 0.33 0.668 0.6 1.375 1.004 1.965 c -0.27 0.628 -2.053 1.19 -2.023 0.057 c 0.39 -0.17 1.05 -0.035 1.395 -0.25 c -0.193 -0.556 -0.48 -1.006 -0.434 -1.771 Z m -6.927 -1.617 c -1.422 -0.33 -2.131 0.592 -2.56 1.553 c -0.384 -0.094 -0.231 -0.615 -0.135 -0.883 c 0.255 -0.701 1.28 -1.633 2.119 -1.506 c 0.359 0.057 0.848 0.386 0.576 0.834 Z M 9.642 1.593 c -1.56 0.44 -3.56 1.574 -4.2 2.974 c 0.495 -0.07 0.84 -0.321 1.33 -0.351 c 0.186 -0.016 0.428 0.074 0.641 0.015 c 0.424 -0.104 0.78 -1.065 1.102 -1.41 c 0.31 -0.345 0.685 -0.496 0.94 -0.81 c 0.167 -0.09 0.409 -0.074 0.42 -0.33 c -0.073 -0.075 -0.15 -0.135 -0.232 -0.105 v 0.017 Z" fill="#00000"/></svg>