<svg xmlns="http://www.w3.org/2000/svg" width="2500" height="1875" viewBox="0 0 24 24"><path d="M 11.886 9.769 c 1.647 0 2.95 0.436 3.912 1.307 c 0.961 0.872 1.442 2.06 1.442 3.566 c 0 1.744 -0.548 3.107 -1.643 4.09 c -1.088 0.977 -2.638 1.465 -4.65 1.465 c -1.826 0 -3.26 -0.294 -4.303 -0.883 v -2.38 a 7.89 7.89 0 0 0 2.079 0.793 c 0.782 0.186 1.509 0.28 2.18 0.28 c 1.184 0 2.086 -0.265 2.704 -0.794 c 0.619 -0.53 0.928 -1.304 0.928 -2.325 c 0 -1.952 -1.245 -2.929 -3.733 -2.929 c -0.35 0 -0.783 0.038 -1.297 0.112 c -0.514 0.067 -0.965 0.145 -1.352 0.235 l -1.174 -0.693 l 0.626 -7.98 H 16.1 v 2.335 H 9.919 l -0.37 4.046 c 0.262 -0.044 0.578 -0.096 0.95 -0.156 c 0.38 -0.06 0.843 -0.09 1.387 -0.09 Z M 12 0 C 5.373 0 0 5.373 0 12 a 11.998 11.998 0 0 0 6.65 10.738 v -3.675 h 0.138 c 0.01 0.004 4.86 2.466 8.021 0 c 3.163 -2.468 1.62 -5.785 1.08 -6.557 c -0.54 -0.771 -3.317 -2.083 -5.708 -1.851 c -2.391 0.231 -2.391 0.308 -2.391 0.308 l 0.617 -7.096 l 7.687 -0.074 V 0.744 A 12 12 0 0 0 11.999 0 Z m 4.095 0.744 V 3.793 l -7.688 0.074 l -0.617 7.096 s 0 -0.077 2.391 -0.308 c 2.392 -0.232 5.169 1.08 5.708 1.851 c 0.54 0.772 2.083 4.089 -1.08 6.557 c -3.16 2.467 -8.013 0.004 -8.02 0 h -0.14 v 3.675 A 12 12 0 0 0 12 24 c 6.628 0 12 -5.373 12 -12 A 12.007 12.007 0 0 0 16.35 0.83 c -0.085 -0.03 -0.17 -0.059 -0.255 -0.086 Z M 6.299 22.556 Z" fill="#2E8B57"/></svg>