<svg xmlns="http://www.w3.org/2000/svg" width="2500" height="1875" viewBox="0 0 24 24"><path d="M 4.237 0.001 c -0.312 -0.013 -0.665 0.072 -0.828 0.457 c -0.158 0.374 -0.283 1.188 -0.34 2.276 l 1.223 0.591 c -0.02 -0.737 0.007 -1.43 0.076 -2.066 c -0.026 0.299 -0.056 0.96 0.006 2.039 c 0.019 0.342 0.049 0.725 0.088 1.15 c 0.002 0.024 0.002 0.047 0.007 0.069 a 45.485 45.485 0 0 0 0.309 2.412 c 0.057 0.368 0.126 0.752 0.195 1.16 l -0.01 0.01 c 0.014 0.01 0.015 0.018 0.014 0.023 l 0.03 0.16 c 0.03 0.162 0.06 0.328 0.093 0.494 l 0.108 0.553 l 0.056 0.289 a 61.72 61.72 0 0 0 0.457 2.068 c 0.09 0.382 0.186 0.78 0.287 1.186 c 0.098 0.386 0.199 0.783 0.309 1.193 c 0.096 0.362 0.199 0.735 0.303 1.117 c 0.003 0.018 0.012 0.036 0.015 0.055 a 145.826 145.826 0 0 0 0.34 1.185 l 0.049 0.174 c 0.078 0.261 0.158 0.533 0.242 0.805 a 4.2 4.2 0 0 1 -0.293 -0.135 l -0.19 -0.654 c -0.02 -0.077 -0.042 -0.148 -0.062 -0.225 l -0.002 -0.004 l -0.004 -0.002 c -0.087 -0.3 -0.17 -0.607 -0.257 -0.916 c -0.023 -0.087 -0.044 -0.173 -0.069 -0.263 l -0.314 -1.178 c -0.1 -0.381 -0.194 -0.765 -0.29 -1.154 c -0.094 -0.39 -0.185 -0.78 -0.277 -1.172 c -0.093 -0.401 -0.181 -0.8 -0.265 -1.203 c -0.085 -0.396 -0.161 -0.798 -0.24 -1.193 a 50.315 50.315 0 0 1 -0.211 -1.17 c -0.004 -0.013 -0.006 -0.03 -0.01 -0.041 l 0.004 -0.002 c -0.057 -0.386 -0.116 -0.77 -0.174 -1.15 a 60.905 60.905 0 0 1 -0.154 -1.204 a 27.447 27.447 0 0 1 -0.172 -2.41 l -1.22 -0.59 c -0.004 0.074 -0.01 0.15 -0.013 0.23 c -0.012 0.294 -0.02 0.605 -0.023 0.93 a 45.3 45.3 0 0 0 0.006 1.157 c 0.009 0.37 0.025 0.755 0.045 1.148 c 0.02 0.336 0.042 0.675 0.07 1.022 l 0.002 0.039 l 0.006 0.004 c 0.003 0.023 0.007 0.05 0.006 0.076 c 0.033 0.368 0.064 0.739 0.107 1.115 a 34.493 34.493 0 0 0 0.303 2.125 c 0.01 0.064 0.024 0.131 0.035 0.195 a 23.418 23.418 0 0 0 0.547 2.32 c 0.07 0.237 0.14 0.464 0.21 0.68 c 0.063 0.182 0.13 0.365 0.194 0.545 c 0.155 0.422 0.327 0.832 0.512 1.232 l 0.006 0.004 a 0.318 0.318 0 0 0 0.02 0.05 c 0.225 0.485 0.475 0.95 0.755 1.395 c 0.01 0.013 0.02 0.033 0.03 0.047 c -0.455 -0.183 -1.259 -0.098 -1.253 -0.097 c 0.83 0.288 1.557 0.64 2.016 1.175 c -0.183 0.2 -0.523 0.352 -0.953 0.477 c 0.594 0.064 0.924 -0.039 1.045 -0.092 c -0.31 0.26 -0.483 0.732 -0.635 1.24 c 0.35 -0.57 0.696 -0.949 1.033 -1.094 c 0.078 0.258 0.162 0.524 0.244 0.788 A 147.532 147.532 0 0 0 5.157 24 a 0.56 0.56 0 0 0 0.43 -0.312 c 0.13 -0.282 0.83 -1.775 1.908 -3.875 c 0.413 1.303 0.88 2.679 1.386 4.109 a 0.494 0.494 0 0 0 0.076 -0.465 a 103.735 103.735 0 0 1 -1.308 -3.945 c 0.154 -0.299 0.316 -0.612 0.484 -0.932 c 0.125 0.04 0.255 0.094 0.389 0.155 c 0.203 0.186 0.352 0.491 0.482 0.84 a 1.515 1.515 0 0 0 -0.334 -1.098 c 1.335 0.258 2.547 0.09 3.287 -0.81 a 3.97 3.97 0 0 0 0.192 -0.258 c -0.325 0.304 -0.682 0.404 -1.313 0.273 c 0.996 -0.281 1.523 -0.617 2.035 -1.22 c 0.12 -0.145 0.244 -0.303 0.371 -0.48 c -0.943 0.722 -1.927 0.822 -2.9 0.493 l -0.045 -0.018 c 0.914 0.02 2.203 -0.474 3.092 -1.189 c 0.41 -0.33 0.796 -0.73 1.17 -1.21 c 0.28 -0.359 0.55 -0.76 0.82 -1.216 c 0.234 -0.393 0.468 -0.824 0.7 -1.293 a 2.83 2.83 0 0 1 -0.74 0.137 l -0.144 0.008 c -0.048 0.002 -0.093 0 -0.146 0.002 c 0.885 -0.198 1.5 -0.74 1.994 -1.447 c -0.24 0.117 -0.628 0.262 -1.07 0.297 c -0.058 0.006 -0.12 0.006 -0.182 0.006 c -0.013 -0.002 -0.028 0 -0.047 -0.002 c 0.306 -0.078 0.574 -0.178 0.81 -0.309 a 3.363 3.363 0 0 0 0.358 -0.236 c 0.044 -0.037 0.088 -0.07 0.13 -0.106 c 0.099 -0.086 0.193 -0.18 0.28 -0.287 c 0.028 -0.034 0.056 -0.063 0.08 -0.098 c 0.036 -0.05 0.073 -0.098 0.104 -0.146 a 8.388 8.388 0 0 0 0.51 -0.828 c 0.015 -0.031 0.032 -0.057 0.046 -0.088 c 0.04 -0.084 0.08 -0.16 0.11 -0.227 c 0.042 -0.099 0.074 -0.179 0.092 -0.238 a 0.515 0.515 0 0 1 -0.108 0.051 c -0.273 0.112 -0.727 0.187 -1.086 0.201 c -0.004 0 -0.008 0 -0.013 0.004 h -0.067 c 0.72 -0.214 1.067 -0.45 1.422 -0.818 a 13.883 13.883 0 0 0 1.154 -1.428 c 0.264 -0.37 0.505 -0.738 0.692 -1.072 a 6.5 6.5 0 0 0 0.298 -0.592 c 0.066 -0.157 0.122 -0.305 0.172 -0.45 c -0.466 0.01 -0.986 0.011 -1.48 0 c 0.495 0.01 1.015 0.007 1.484 -0.005 c 0.5 -1.485 0.063 -2.262 0.063 -2.262 s -0.526 -1.212 -1.4 -0.851 c -0.426 0.175 -1.172 0.73 -2.083 1.56 l 0.514 1.45 a 17.561 17.561 0 0 1 1.703 -1.602 c -0.257 0.22 -0.807 0.726 -1.615 1.644 c -0.256 0.29 -0.537 0.624 -0.844 0.997 c -0.017 0.02 -0.035 0.038 -0.047 0.06 a 51.435 51.435 0 0 0 -1.666 2.187 c -0.248 0.34 -0.498 0.704 -0.765 1.088 h -0.016 c 0.002 0.02 -0.004 0.028 -0.01 0.032 l -0.101 0.152 c -0.104 0.155 -0.213 0.31 -0.318 0.47 l -0.352 0.534 c -0.061 0.09 -0.124 0.181 -0.186 0.277 c -0.184 0.282 -0.367 0.573 -0.558 0.873 a 97.351 97.351 0 0 0 -1.428 2.338 a 96.866 96.866 0 0 0 -1.341 2.343 c -0.012 0.017 -0.02 0.04 -0.034 0.057 a 197.256 197.256 0 0 0 -0.668 1.223 l -0.097 0.181 c -0.17 0.318 -0.346 0.642 -0.52 0.979 c 0 0.004 -0.005 0.008 -0.006 0.013 c -0.026 0.048 -0.05 0.093 -0.072 0.141 c -0.117 0.222 -0.218 0.424 -0.45 0.87 a 1.352 1.352 0 0 0 -0.233 -0.182 l 0.345 -0.65 c 0.047 -0.089 0.096 -0.177 0.143 -0.27 l 0.04 -0.077 l 0.546 -1.001 l 0.13 -0.233 v -0.006 l -0.001 -0.006 c 0.169 -0.31 0.345 -0.62 0.52 -0.94 c 0.051 -0.087 0.102 -0.173 0.153 -0.265 c 0.224 -0.395 0.454 -0.794 0.684 -1.197 a 91.685 91.685 0 0 1 2.135 -3.504 c 0.247 -0.386 0.503 -0.77 0.754 -1.152 c 0.092 -0.138 0.182 -0.272 0.279 -0.41 a 72.9 72.9 0 0 1 0.48 -0.701 c 0.007 -0.012 0.019 -0.024 0.026 -0.037 h 0.006 c 0.26 -0.356 0.517 -0.713 0.773 -1.065 c 0.278 -0.373 0.554 -0.735 0.83 -1.09 a 31.075 31.075 0 0 1 1.777 -2.075 l -0.515 -1.446 c -0.06 0.057 -0.126 0.116 -0.192 0.178 a 32.37 32.37 0 0 0 -0.758 0.729 c -0.295 0.294 -0.597 0.606 -0.912 0.935 a 46.032 46.032 0 0 0 -1.632 1.838 l -0.03 0.033 l 0.002 0.008 c -0.017 0.02 -0.033 0.044 -0.054 0.064 c -0.266 0.323 -0.538 0.649 -0.801 0.985 a 39.105 39.105 0 0 0 -1.445 1.95 c -0.043 0.06 -0.085 0.126 -0.127 0.186 a 26.458 26.458 0 0 0 -1.403 2.303 c -0.13 0.247 -0.256 0.485 -0.37 0.715 c -0.096 0.195 -0.187 0.395 -0.278 0.591 c -0.21 0.463 -0.398 0.93 -0.566 1.399 l 0.002 0.006 a 0.36 0.36 0 0 0 -0.026 0.058 c -0.108 0.303 -0.203 0.608 -0.29 0.914 c -0.14 0.174 -0.302 0.325 -0.483 0.46 a 3.505 3.505 0 0 0 -0.131 -0.153 a 5.148 5.148 0 0 0 0.824 -2.211 a 6.4 6.4 0 0 0 -0.016 -1.488 c -0.046 -0.4 -0.126 -0.82 -0.238 -1.274 c -0.097 -0.393 -0.217 -0.81 -0.363 -1.248 c -0.091 0.185 -0.22 0.367 -0.379 0.545 l -0.086 0.094 c -0.029 0.032 -0.06 0.06 -0.092 0.094 c 0.434 -0.674 0.486 -1.397 0.358 -2.148 a 2.722 2.722 0 0 1 -0.49 0.85 c -0.033 0.038 -0.072 0.077 -0.11 0.116 c -0.01 0.007 -0.019 0.018 -0.033 0.028 c 0.144 -0.24 0.25 -0.467 0.318 -0.698 a 1.29 1.29 0 0 0 0.04 -0.146 a 2.85 2.85 0 0 0 0.038 -0.225 l 0.018 -0.146 a 2.11 2.11 0 0 0 -0.002 -0.354 c -0.003 -0.04 -0.004 -0.076 -0.01 -0.113 c -0.01 -0.055 -0.016 -0.105 -0.027 -0.154 a 7.416 7.416 0 0 0 -0.193 -0.84 c -0.01 -0.028 -0.015 -0.056 -0.026 -0.084 c -0.027 -0.079 -0.048 -0.149 -0.072 -0.209 a 2.1 2.1 0 0 0 -0.09 -0.209 a 0.455 0.455 0 0 1 -0.035 0.1 c -0.102 0.24 -0.34 0.57 -0.557 0.8 c -0.003 0.003 -0.007 0.005 -0.007 0.01 l -0.04 0.043 c 0.318 -0.58 0.39 -0.946 0.385 -1.398 a 12.274 12.274 0 0 0 -0.16 -1.615 a 10.68 10.68 0 0 0 -0.232 -1.104 a 5.853 5.853 0 0 0 -0.18 -0.558 a 6.337 6.337 0 0 0 -0.172 -0.391 a 26.18 26.18 0 0 0 0.002 -0.004 C 5.576 0.341 4.82 0.124 4.82 0.124 s -0.27 -0.11 -0.582 -0.123 Z m 3.38 15.783 l 0.032 0.082 v 0.002 c -0.06 0.033 -0.116 0.067 -0.178 0.097 c -0.012 0.004 -0.024 0.012 -0.039 0.018 a 2.41 2.41 0 0 0 0.186 -0.2 Z m -0.603 1.626 c 0.13 0.136 0.25 0.242 0.354 0.32 l 0.07 0.227 a 1.866 1.866 0 0 0 -0.246 0.053 l -0.03 -0.098 c -0.024 -0.084 -0.048 -0.17 -0.076 -0.257 l -0.021 -0.073 Z m 0.26 0.875 a 2.34 2.34 0 0 1 0.271 0.01 l 0.07 0.229 a 0.778 0.778 0 0 1 0.247 -0.004 l -0.326 0.627 a 127.643 127.643 0 0 1 -0.262 -0.862 Z"/></svg>