<svg xmlns="http://www.w3.org/2000/svg" width="2500" height="1875" viewBox="0 0 20 20"><path d="M 16.405 5.501 c -0.115 0 -0.193 0.014 -0.274 0.033 v 0.013 h 0.014 c 0.054 0.104 0.146 0.18 0.214 0.273 c 0.054 0.107 0.1 0.214 0.154 0.32 l 0.014 -0.015 c 0.094 -0.066 0.14 -0.172 0.14 -0.333 c -0.04 -0.047 -0.046 -0.094 -0.08 -0.14 c -0.04 -0.067 -0.126 -0.1 -0.18 -0.153 Z M 5.77 18.695 h -0.927 a 50.854 50.854 0 0 0 -0.27 -4.41 h -0.008 l -1.41 4.41 H 2.45 l -1.4 -4.41 h -0.01 a 72.892 72.892 0 0 0 -0.195 4.41 H 0 c 0.055 -1.966 0.192 -3.81 0.41 -5.53 h 1.15 l 1.335 4.064 h 0.008 l 1.347 -4.064 h 1.095 c 0.242 2.015 0.384 3.86 0.428 5.53 Z m 4.017 -4.08 c -0.378 2.045 -0.876 3.533 -1.492 4.46 c -0.482 0.716 -1.01 1.073 -1.583 1.073 c -0.153 0 -0.34 -0.046 -0.566 -0.138 v -0.494 c 0.11 0.017 0.24 0.026 0.386 0.026 c 0.268 0 0.483 -0.075 0.647 -0.222 c 0.197 -0.18 0.295 -0.382 0.295 -0.605 c 0 -0.155 -0.077 -0.47 -0.23 -0.944 L 6.23 14.615 h 0.91 l 0.727 2.36 c 0.164 0.536 0.233 0.91 0.205 1.123 c 0.4 -1.064 0.678 -2.227 0.835 -3.483 Z m 12.325 4.08 h -2.63 v -5.53 h 0.885 v 4.85 h 1.745 Z m -3.32 0.135 l -1.016 -0.5 c 0.09 -0.076 0.177 -0.158 0.255 -0.25 c 0.433 -0.506 0.648 -1.258 0.648 -2.253 c 0 -1.83 -0.718 -2.746 -2.155 -2.746 c -0.704 0 -1.254 0.232 -1.65 0.697 c -0.43 0.508 -0.646 1.256 -0.646 2.245 c 0 0.972 0.19 1.686 0.574 2.14 c 0.35 0.41 0.877 0.615 1.583 0.615 c 0.264 0 0.506 -0.033 0.725 -0.098 l 1.325 0.772 l 0.36 -0.622 Z M 15.5 17.588 c -0.225 -0.36 -0.337 -0.94 -0.337 -1.736 c 0 -1.393 0.424 -2.09 1.27 -2.09 c 0.443 0 0.77 0.167 0.977 0.5 c 0.224 0.362 0.336 0.936 0.336 1.723 c 0 1.404 -0.424 2.108 -1.27 2.108 c -0.445 0 -0.77 -0.167 -0.978 -0.5 Z m -1.658 -0.425 c 0 0.47 -0.172 0.856 -0.516 1.156 c -0.344 0.3 -0.803 0.45 -1.384 0.45 c -0.543 0 -1.064 -0.172 -1.573 -0.515 l 0.237 -0.476 c 0.438 0.22 0.833 0.328 1.19 0.328 c 0.332 0 0.593 -0.073 0.783 -0.22 a 0.754 0.754 0 0 0 0.3 -0.615 c 0 -0.33 -0.23 -0.61 -0.648 -0.845 c -0.388 -0.213 -1.163 -0.657 -1.163 -0.657 c -0.422 -0.307 -0.632 -0.636 -0.632 -1.177 c 0 -0.45 0.157 -0.81 0.47 -1.085 c 0.315 -0.278 0.72 -0.415 1.22 -0.415 c 0.512 0 0.98 0.136 1.4 0.41 l -0.213 0.476 a 2.726 2.726 0 0 0 -1.064 -0.23 c -0.283 0 -0.502 0.068 -0.654 0.206 a 0.685 0.685 0 0 0 -0.248 0.524 c 0 0.328 0.234 0.61 0.666 0.85 c 0.393 0.215 1.187 0.67 1.187 0.67 c 0.433 0.305 0.648 0.63 0.648 1.168 Z m 9.382 -5.852 c -0.535 -0.014 -0.95 0.04 -1.297 0.188 c -0.1 0.04 -0.26 0.04 -0.274 0.167 c 0.055 0.053 0.063 0.14 0.11 0.214 c 0.08 0.134 0.218 0.313 0.346 0.407 c 0.14 0.11 0.28 0.216 0.427 0.31 c 0.26 0.16 0.555 0.255 0.81 0.416 c 0.145 0.094 0.293 0.213 0.44 0.313 c 0.073 0.05 0.12 0.14 0.214 0.172 v -0.02 c -0.046 -0.06 -0.06 -0.147 -0.105 -0.214 c -0.067 -0.067 -0.134 -0.127 -0.2 -0.193 a 3.223 3.223 0 0 0 -0.695 -0.675 c -0.214 -0.146 -0.682 -0.35 -0.77 -0.595 l -0.013 -0.014 c 0.146 -0.013 0.32 -0.066 0.46 -0.106 c 0.227 -0.06 0.435 -0.047 0.67 -0.106 c 0.106 -0.027 0.213 -0.06 0.32 -0.094 v -0.06 c -0.12 -0.12 -0.21 -0.283 -0.334 -0.395 a 8.867 8.867 0 0 0 -1.104 -0.823 c -0.21 -0.134 -0.476 -0.22 -0.697 -0.334 c -0.08 -0.04 -0.214 -0.06 -0.26 -0.127 c -0.12 -0.146 -0.19 -0.34 -0.275 -0.514 a 17.69 17.69 0 0 1 -0.547 -1.163 c -0.12 -0.262 -0.193 -0.523 -0.34 -0.763 c -0.69 -1.137 -1.437 -1.826 -2.586 -2.5 c -0.247 -0.14 -0.543 -0.2 -0.856 -0.274 c -0.167 -0.008 -0.334 -0.02 -0.5 -0.027 c -0.11 -0.047 -0.216 -0.174 -0.31 -0.235 c -0.38 -0.24 -1.364 -0.76 -1.644 -0.072 c -0.18 0.434 0.267 0.862 0.422 1.082 c 0.115 0.153 0.26 0.328 0.34 0.5 c 0.047 0.116 0.06 0.235 0.107 0.356 c 0.106 0.294 0.207 0.622 0.347 0.897 c 0.073 0.14 0.153 0.287 0.247 0.413 c 0.054 0.073 0.146 0.107 0.167 0.227 c -0.094 0.136 -0.1 0.334 -0.154 0.5 c -0.24 0.757 -0.146 1.693 0.194 2.25 c 0.107 0.166 0.362 0.534 0.703 0.393 c 0.3 -0.12 0.234 -0.5 0.32 -0.835 c 0.02 -0.08 0.007 -0.133 0.048 -0.187 v 0.015 c 0.094 0.188 0.188 0.367 0.274 0.555 c 0.206 0.328 0.566 0.668 0.867 0.895 c 0.16 0.12 0.287 0.328 0.487 0.402 v -0.02 h -0.015 c -0.043 -0.058 -0.1 -0.086 -0.154 -0.133 a 3.445 3.445 0 0 1 -0.35 -0.4 a 8.76 8.76 0 0 1 -0.747 -1.218 c -0.11 -0.21 -0.202 -0.436 -0.29 -0.643 c -0.04 -0.08 -0.04 -0.2 -0.107 -0.24 c -0.1 0.146 -0.247 0.273 -0.32 0.453 c -0.127 0.288 -0.14 0.642 -0.188 1.01 c -0.027 0.007 -0.014 0 -0.027 0.014 c -0.214 -0.052 -0.287 -0.274 -0.367 -0.46 c -0.2 -0.475 -0.233 -1.238 -0.06 -1.785 c 0.047 -0.14 0.247 -0.582 0.167 -0.716 c -0.042 -0.127 -0.174 -0.2 -0.247 -0.303 a 2.478 2.478 0 0 1 -0.24 -0.427 c -0.16 -0.374 -0.24 -0.788 -0.414 -1.162 c -0.08 -0.173 -0.22 -0.354 -0.334 -0.513 c -0.127 -0.18 -0.267 -0.307 -0.368 -0.52 c -0.033 -0.073 -0.08 -0.194 -0.027 -0.274 c 0.014 -0.054 0.042 -0.075 0.094 -0.09 c 0.088 -0.072 0.335 0.022 0.422 0.062 c 0.247 0.1 0.455 0.194 0.662 0.334 c 0.094 0.066 0.195 0.193 0.315 0.226 h 0.14 c 0.214 0.047 0.455 0.014 0.655 0.073 c 0.355 0.114 0.675 0.28 0.962 0.46 a 5.953 5.953 0 0 1 2.085 2.286 c 0.08 0.154 0.115 0.295 0.188 0.455 c 0.14 0.33 0.313 0.663 0.455 0.982 c 0.14 0.315 0.275 0.636 0.476 0.897 c 0.1 0.14 0.502 0.213 0.682 0.286 c 0.133 0.06 0.34 0.115 0.46 0.188 c 0.23 0.14 0.454 0.3 0.67 0.454 c 0.11 0.076 0.443 0.243 0.463 0.378 Z" fill="#4169E1"/></svg>