<svg xmlns="http://www.w3.org/2000/svg" width="2500" height="1875" viewBox="0 0 32 32"><path d="M 22.292 11.717 l -0.01 0 a 0.033 0.033 0 0 1 -0.017 -0.01 a 0.08 0.08 0 0 1 -0.02 -0.068 l 0.565 -3.451 l 2.651 2.648 L 22.7 12 a 0.069 0.069 0 0 1 -0.024 0.005 H 22.67 s -0.007 0 -0.014 -0.011 A 1.267 1.267 0 0 0 22.292 11.717 Z m 3.844 -0.21 l 2.834 2.831 c 0.589 0.588 0.883 0.882 0.991 1.222 a 1.355 1.355 0 0 1 0.039 0.152 l -6.772 -2.864 l -0.011 0 c -0.027 -0.011 -0.059 -0.024 -0.059 -0.052 s 0.032 -0.041 0.059 -0.052 l 0.008 0 Z m 3.748 5.114 a 5.3 5.3 0 0 1 -0.914 1.042 l -3.194 3.19 l -4.132 -0.86 l -0.022 0 c -0.036 -0.006 -0.076 -0.012 -0.076 -0.046 a 1.249 1.249 0 0 0 -0.479 -0.871 c -0.017 -0.017 -0.012 -0.043 -0.008 -0.068 l 0 -0.01 l 0.778 -4.766 l 0 -0.016 c 0 -0.036 0.011 -0.079 0.045 -0.079 a 1.265 1.265 0 0 0 0.848 -0.486 a 0.064 0.064 0 0 1 0.02 -0.02 a 0.1 0.1 0 0 1 0.075 0.01 Z m -4.843 4.966 l -5.253 5.248 l 0.9 -5.521 v -0.008 l 0 -0.02 c 0.007 -0.018 0.026 -0.025 0.045 -0.033 l 0.009 0 a 1.355 1.355 0 0 0 0.508 -0.377 a 0.12 0.12 0 0 1 0.066 -0.045 a 0.074 0.074 0 0 1 0.021 0 Z m -6.365 6.358 l -0.592 0.592 l -6.546 -9.451 l -0.008 -0.01 a 0.063 0.063 0 0 1 -0.019 -0.044 A 0.066 0.066 0 0 1 11.527 19 l 0.007 -0.009 c 0.02 -0.029 0.037 -0.058 0.056 -0.09 l 0.015 -0.025 v 0 a 0.1 0.1 0 0 1 0.038 -0.043 a 0.08 0.08 0 0 1 0.053 0 l 7.253 1.494 a 0.127 0.127 0 0 1 0.056 0.024 a 0.059 0.059 0 0 1 0.014 0.031 l 0 0.014 a 1.282 1.282 0 0 0 0.749 0.844 c 0.02 0.01 0.011 0.033 0 0.057 a 0.213 0.213 0 0 0 -0.011 0.033 C 19.67 21.883 18.886 26.657 18.676 27.945 Z M 17.439 29.18 a 2.739 2.739 0 0 1 -0.985 0.752 a 1.459 1.459 0 0 1 -0.882 0 c -0.341 -0.108 -0.635 -0.4 -1.224 -0.99 L 7.774 22.375 l 1.717 -2.661 a 0.105 0.105 0 0 1 0.029 -0.034 a 0.078 0.078 0 0 1 0.067 0 a 1.736 1.736 0 0 0 0.521 0.077 a 1.786 1.786 0 0 0 0.676 -0.137 a 0.052 0.052 0 0 1 0.055 0 a 0.241 0.241 0 0 1 0.021 0.024 Z m -10.3 -7.438 L 5.632 20.235 l 2.979 -1.269 a 0.069 0.069 0 0 1 0.024 0 c 0.025 0 0.039 0.025 0.053 0.048 l 0.01 0.016 c 0.028 0.043 0.057 0.081 0.085 0.118 l 0.009 0.012 c 0.008 0.012 0 0.024 -0.006 0.037 Z M 4.965 19.569 L 3.057 17.663 c -0.325 -0.324 -0.56 -0.559 -0.723 -0.762 l 5.8 1.2 l 0.022 0 c 0.036 0.006 0.076 0.012 0.076 0.046 s -0.043 0.053 -0.08 0.068 l -0.017 0.007 Z M 2 15.921 a 1.5 1.5 0 0 1 0.066 -0.362 c 0.108 -0.34 0.4 -0.634 0.991 -1.222 L 5.5 11.9 c 0.4 0.59 3.061 4.426 3.371 4.87 l 0.01 0.013 c 0.02 0.027 0.042 0.056 0.02 0.078 a 2 2 0 0 0 -0.289 0.385 a 0.122 0.122 0 0 1 -0.036 0.045 a 0.041 0.041 0 0 1 -0.031 0 h 0 Z m 4.152 -4.675 l 3.283 -3.28 c 0.309 0.135 1.432 0.609 2.436 1.033 c 0.761 0.321 1.454 0.614 1.671 0.707 a 0.08 0.08 0 0 1 0.051 0.04 a 0.073 0.073 0 0 1 0 0.044 a 1.532 1.532 0 0 0 -0.033 0.315 a 1.46 1.46 0 0 0 0.416 1.02 c 0.022 0.021 0 0.053 -0.019 0.081 l -0.01 0.015 l -3.333 5.158 a 0.108 0.108 0 0 1 -0.031 0.036 a 0.081 0.081 0 0 1 -0.063 0 a 1.656 1.656 0 0 0 -0.4 -0.054 a 2.2 2.2 0 0 0 -0.381 0.046 h 0 a 0.044 0.044 0 0 1 -0.039 0 a 0.146 0.146 0 0 1 -0.033 -0.037 Z M 10.1 7.3 l 4.251 -4.246 c 0.589 -0.588 0.883 -0.882 1.224 -0.99 a 1.459 1.459 0 0 1 0.882 0 c 0.341 0.108 0.635 0.4 1.224 0.99 l 0.921 0.92 L 15.577 8.655 a 0.127 0.127 0 0 1 -0.03 0.035 a 0.08 0.08 0 0 1 -0.066 0 a 1.652 1.652 0 0 0 -0.459 -0.065 a 1.533 1.533 0 0 0 -0.945 0.336 c -0.02 0.019 -0.049 0.007 -0.074 0 C 13.608 8.786 10.537 7.489 10.1 7.3 Z m 9.143 -2.685 l 2.792 2.789 l -0.672 4.16 v 0.011 a 0.082 0.082 0 0 1 -0.006 0.028 c -0.007 0.015 -0.021 0.018 -0.036 0.021 l -0.016 0 a 1.329 1.329 0 0 0 -0.385 0.195 l -0.014 0.013 a 0.043 0.043 0 0 1 -0.03 0.018 a 0.065 0.065 0 0 1 -0.031 -0.005 l -4.253 -1.805 l -0.009 0 c -0.027 -0.011 -0.059 -0.024 -0.059 -0.052 a 1.6 1.6 0 0 0 -0.217 -0.653 l -0.009 -0.015 c -0.021 -0.034 -0.043 -0.069 -0.026 -0.1 Z M 16.367 10.9 l 3.987 1.687 a 0.092 0.092 0 0 1 0.055 0.042 a 0.072 0.072 0 0 1 0 0.041 a 1.045 1.045 0 0 0 -0.021 0.192 v 0.112 c 0 0.027 -0.029 0.039 -0.055 0.05 l -0.009 0 c -0.631 0.269 -8.868 3.777 -8.88 3.777 a 0.048 0.048 0 0 1 -0.038 -0.012 c -0.022 -0.021 0 -0.053 0.019 -0.081 l 0.01 -0.015 l 3.277 -5.067 l 0.006 -0.009 c 0.019 -0.031 0.041 -0.065 0.076 -0.065 l 0.033 0.005 a 1.4 1.4 0 0 0 0.206 0.02 a 1.483 1.483 0 0 0 1.236 -0.655 a 0.113 0.113 0 0 1 0.024 -0.029 A 0.078 0.078 0 0 1 16.367 10.9 Z M 11.8 17.611 l 8.977 -3.824 a 0.037 0.037 0 0 1 0.025 0.013 a 1.372 1.372 0 0 0 0.13 0.112 l 0.02 0.013 c 0.018 0.011 0.037 0.022 0.038 0.041 v 0.018 L 20.22 18.7 l 0 0.019 c 0 0.037 -0.01 0.079 -0.045 0.079 a 1.262 1.262 0 0 0 -1 0.618 l 0 0.006 a 0.1 0.1 0 0 1 -0.037 0.042 a 0.088 0.088 0 0 1 -0.051 0 l -7.159 -1.475 S 11.808 17.612 11.8 17.611 Z" fill="#00BFFF"/></svg>