<svg xmlns="http://www.w3.org/2000/svg" width="2500" height="1875" viewBox="0 0 24 24"><path d="M 13.527 0.099 C 6.955 -0.744 0.942 3.9 0.099 10.473 c -0.843 6.572 3.8 12.584 10.373 13.428 c 6.573 0.843 12.587 -3.801 13.428 -10.374 C 24.744 6.955 20.101 0.943 13.527 0.099 Z m 2.471 7.485 a 0.855 0.855 0 0 0 -0.593 0.25 l -4.453 4.453 l -0.307 -0.307 l -0.643 -0.643 c 4.389 -4.376 5.18 -4.418 5.996 -3.753 Z m -4.863 4.861 l 4.44 -4.44 a 0.62 0.62 0 1 1 0.847 0.903 l -4.699 4.125 l -0.588 -0.588 Z m 0.33 0.694 l -1.1 0.238 a 0.06 0.06 0 0 1 -0.067 -0.032 a 0.06 0.06 0 0 1 0.01 -0.073 l 0.645 -0.645 l 0.512 0.512 Z m -2.803 -0.459 l 1.172 -1.172 l 0.879 0.878 l -1.979 0.426 a 0.074 0.074 0 0 1 -0.085 -0.039 a 0.072 0.072 0 0 1 0.013 -0.093 Z m -3.646 6.058 a 0.076 0.076 0 0 1 -0.069 -0.083 a 0.077 0.077 0 0 1 0.022 -0.046 h 0.002 l 0.946 -0.946 l 1.222 1.222 l -2.123 -0.147 Z m 2.425 -1.256 a 0.228 0.228 0 0 0 -0.117 0.256 l 0.203 0.865 a 0.125 0.125 0 0 1 -0.211 0.117 h -0.003 l -0.934 -0.934 l -0.294 -0.295 l 3.762 -3.758 l 1.82 -0.393 l 0.874 0.874 c -1.255 1.102 -2.971 2.201 -5.1 3.268 Z m 5.279 -3.428 h -0.002 l -0.839 -0.839 l 4.699 -4.125 a 0.952 0.952 0 0 0 0.119 -0.127 c -0.148 1.345 -2.029 3.245 -3.977 5.091 Z m 3.657 -6.46 l -0.003 -0.002 a 1.822 1.822 0 0 1 2.459 -2.684 l -1.61 1.613 a 0.119 0.119 0 0 0 0 0.169 l 1.247 1.247 a 1.817 1.817 0 0 1 -2.093 -0.343 Z m 2.578 0 a 1.714 1.714 0 0 1 -0.271 0.218 h -0.001 l -1.207 -1.207 l 1.533 -1.533 c 0.661 0.72 0.637 1.832 -0.054 2.522 Z M 18.855 6.05 a 0.143 0.143 0 0 0 -0.053 0.157 a 0.416 0.416 0 0 1 -0.053 0.45 a 0.14 0.14 0 0 0 0.023 0.197 a 0.141 0.141 0 0 0 0.084 0.03 a 0.14 0.14 0 0 0 0.106 -0.05 a 0.691 0.691 0 0 0 0.087 -0.751 a 0.138 0.138 0 0 0 -0.194 -0.033 Z" fill="#FF4500"/></svg>