<svg id="svg" version="1.1" xmlns="http://www.w3.org/2000/svg" xmlns:xlink="http://www.w3.org/1999/xlink" width="400" height="398.74476987447696" viewBox="0, 0, 400,398.74476987447696"><g id="svgg"><path id="path0" d="M183.051 1.865 C 150.767 3.671,119.631 17.258,95.471 40.083 C 89.567 45.661,89.402 45.943,92.794 44.671 C 134.713 28.956,182.613 34.866,220.152 60.385 C 287.376 106.085,301.806 199.575,251.353 262.540 C 248.606 265.967,248.738 266.053,253.295 263.809 C 289.140 246.162,316.365 212.549,325.975 174.078 C 348.624 83.405,276.609 -3.368,183.051 1.865 M131.385 69.816 C 99.821 71.833,70.169 84.511,46.342 106.175 C 43.425 108.827,40.574 111.551,40.007 112.228 C 39.439 112.906,37.834 114.688,36.441 116.189 C -3.136 158.824,-9.516 226.811,21.230 278.279 C 27.013 287.959,44.562 309.708,45.684 308.586 C 45.750 308.521,45.177 306.674,44.411 304.483 C 25.091 249.201,40.551 190.555,84.570 152.143 C 134.566 108.516,209.712 106.502,262.216 147.382 C 264.205 148.930,266.048 150.330,266.312 150.493 C 267.551 151.259,260.394 138.116,255.917 131.406 C 228.284 89.983,181.084 66.639,131.385 69.816 M354.138 90.268 C 354.138 90.381,354.652 91.877,355.281 93.592 C 368.344 129.198,366.196 168.545,349.333 202.548 C 309.734 282.397,206.267 305.820,136.790 250.663 C 133.108 247.741,133.097 247.741,134.472 250.733 C 158.871 303.823,219.900 336.416,278.794 327.808 C 383.525 312.502,433.687 192.392,370.489 108.253 C 365.060 101.026,354.138 89.012,354.138 90.268 M147.330 134.547 C 74.997 169.120,47.986 259.958,89.418 329.313 C 132.004 400.601,227.903 418.893,293.282 368.198 C 298.373 364.250,307.677 355.940,308.981 354.176 L 309.867 352.978 307.376 353.914 C 206.161 391.949,101.374 303.879,120.688 197.009 C 124.551 175.629,135.234 152.283,148.516 136.191 C 150.735 133.503,151.271 132.800,151.096 132.810 C 151.014 132.814,149.320 133.596,147.330 134.547 " stroke="none" fill="#047cec" fill-rule="evenodd"></path><path id="path1" d="M180.259 0.389 C 168.186 1.349,148.055 5.484,145.881 7.451 C 145.487 7.808,145.162 7.937,145.158 7.739 C 145.155 7.540,145.020 7.573,144.859 7.812 C 144.698 8.050,143.220 8.750,141.575 9.367 C 122.615 16.474,102.486 30.027,88.676 44.985 C 84.617 49.381,84.625 49.451,88.960 47.621 C 128.507 30.928,176.304 34.828,213.759 57.803 C 261.891 87.327,287.497 142.920,278.520 198.405 C 278.166 200.598,277.740 202.572,277.575 202.792 C 277.410 203.011,277.177 203.639,277.057 204.187 C 275.848 209.711,272.764 220.636,272.326 220.946 C 272.164 221.061,271.223 223.304,270.235 225.931 C 268.040 231.769,264.799 239.031,263.944 240.030 C 263.596 240.436,262.449 242.363,261.395 244.312 C 259.070 248.610,256.481 252.532,252.473 257.827 C 250.813 260.020,249.083 262.353,248.628 263.011 C 248.174 263.669,246.782 265.247,245.536 266.518 C 243.703 268.387,242.710 269.990,243.384 269.990 C 244.497 269.990,257.931 263.977,258.408 263.265 C 258.527 263.088,260.239 262.073,262.213 261.011 C 281.257 250.761,302.784 229.407,312.863 210.768 C 313.930 208.794,315.034 206.946,315.317 206.662 C 316.179 205.797,319.053 199.493,321.902 192.223 C 322.632 190.359,323.338 188.744,323.470 188.634 C 325.535 186.918,330.665 162.352,331.280 151.232 C 331.417 148.756,331.681 146.637,331.866 146.522 C 332.307 146.250,332.307 134.109,331.866 133.837 C 331.681 133.722,331.413 131.601,331.272 129.123 C 330.614 117.609,325.850 95.060,323.412 91.924 C 323.241 91.705,322.381 89.641,321.501 87.338 C 319.873 83.078,315.569 73.743,315.066 73.380 C 314.737 73.142,312.120 68.669,311.776 67.756 C 311.278 66.431,307.644 61.078,304.136 56.500 C 302.135 53.889,300.221 51.337,299.882 50.828 C 299.543 50.320,298.077 48.681,296.624 47.185 C 295.170 45.690,293.294 43.633,292.454 42.614 C 291.614 41.596,290.120 40.098,289.133 39.285 C 288.146 38.472,285.969 36.524,284.296 34.956 C 279.926 30.859,265.139 19.940,263.962 19.940 C 263.574 19.940,258.696 17.116,258.425 16.734 C 258.065 16.228,249.548 12.334,244.865 10.535 C 242.343 9.566,239.831 8.524,239.282 8.218 C 237.025 6.961,226.396 4.091,218.544 2.619 C 207.309 0.513,190.802 -0.448,180.259 0.389 M202.193 1.810 C 303.165 10.619,361.757 118.844,313.283 207.002 C 299.834 231.461,276.037 253.746,251.285 265.061 C 247.531 266.777,247.536 266.853,251.129 262.396 C 270.936 237.832,280.944 208.859,280.947 176.072 C 280.955 109.351,235.289 53.096,169.929 39.307 C 143.759 33.786,112.984 36.384,90.030 46.053 C 88.445 46.720,89.584 45.302,94.141 40.937 C 123.734 12.584,162.946 -1.614,202.193 1.810 M135.831 67.734 C 135.717 67.919,133.328 68.184,130.523 68.322 C 118.367 68.920,95.248 73.631,91.924 76.186 C 91.551 76.472,84.350 79.362,84.009 79.362 C 83.599 79.362,72.850 84.778,70.389 86.225 C 63.709 90.151,61.283 91.752,55.833 95.833 C 41.272 106.735,26.627 122.958,19.759 135.793 C 18.938 137.328,17.862 139.123,17.367 139.781 C 16.135 141.422,12.245 149.658,10.304 154.736 C 9.423 157.039,8.563 159.103,8.393 159.322 C 7.468 160.512,4.067 172.747,2.629 180.060 C -1.319 200.135,-0.670 223.304,4.402 243.359 C 5.782 248.817,6.413 250.821,6.915 251.346 C 7.177 251.620,8.087 253.729,8.936 256.032 C 13.657 268.839,21.941 283.354,31.127 294.915 C 34.892 299.653,48.876 314.168,49.283 313.761 C 49.378 313.666,48.663 311.696,47.694 309.383 C 14.520 230.202,64.067 138.986,149.551 121.863 C 165.428 118.683,187.911 118.498,200.798 121.441 C 208.185 123.128,219.938 126.429,221.415 127.230 C 221.787 127.432,224.389 128.488,227.197 129.576 C 234.436 132.380,238.893 134.361,240.279 135.391 C 240.937 135.879,243.091 137.145,245.065 138.203 C 251.398 141.598,262.573 149.521,267.117 153.838 C 269.724 156.316,271.094 157.009,270.661 155.633 C 269.629 152.350,264.732 141.641,264.058 141.192 C 263.881 141.074,262.697 139.093,261.428 136.790 C 258.657 131.763,257.729 130.363,253.278 124.495 C 251.393 122.011,249.581 119.575,249.252 119.082 C 248.596 118.100,242.423 111.265,239.870 108.695 C 227.130 95.868,209.336 84.122,193.619 78.163 C 191.206 77.248,189.053 76.360,188.833 76.189 C 185.555 73.640,162.400 68.921,150.234 68.322 C 147.429 68.184,145.041 67.919,144.927 67.734 C 144.812 67.549,142.766 67.398,140.379 67.398 C 137.992 67.398,135.946 67.549,135.831 67.734 M148.193 69.415 C 199.989 72.859,243.831 102.401,266.141 148.890 C 267.612 151.955,267.510 151.956,263.793 148.900 C 245.571 133.923,219.201 122.603,195.169 119.442 C 101.592 107.136,22.677 188.390,38.516 280.740 C 40.052 289.699,42.392 298.483,45.254 306.034 C 46.805 310.128,46.495 310.000,40.861 304.219 C -33.970 227.429,2.917 99.154,107.278 73.248 C 116.728 70.903,121.503 70.211,134.796 69.261 C 138.797 68.975,142.155 69.013,148.193 69.415 M350.636 85.344 C 350.767 85.673,351.806 88.275,352.945 91.127 C 365.988 123.789,365.512 161.831,351.651 194.417 C 326.697 253.083,265.854 287.226,202.806 277.944 C 199.743 277.493,197.051 276.973,196.824 276.787 C 196.597 276.602,194.078 275.886,191.226 275.197 C 185.468 273.805,179.476 272.065,178.863 271.607 C 178.644 271.443,176.670 270.639,174.477 269.820 C 165.338 266.407,160.883 264.207,150.313 257.887 C 146.488 255.599,135.292 247.240,132.421 244.528 C 130.399 242.618,129.212 241.987,129.212 242.821 C 129.212 243.964,135.200 257.114,135.950 257.618 C 136.120 257.733,137.129 259.442,138.191 261.416 C 140.614 265.921,142.393 268.609,146.720 274.308 C 148.606 276.793,150.419 279.229,150.748 279.722 C 153.037 283.151,167.098 297.212,170.528 299.501 C 171.020 299.831,173.456 301.642,175.941 303.527 C 181.754 307.937,183.420 309.049,187.269 311.090 C 189.007 312.011,190.967 313.166,191.625 313.655 C 193.277 314.883,200.670 318.351,206.181 320.484 C 208.704 321.460,211.306 322.501,211.964 322.796 C 228.298 330.129,262.755 332.717,286.142 328.369 C 294.563 326.803,306.389 323.649,307.677 322.626 C 308.100 322.289,315.171 319.442,315.583 319.442 C 316.045 319.442,326.788 314.232,327.003 313.904 C 327.121 313.723,328.654 312.797,330.409 311.845 C 334.895 309.412,340.179 305.977,340.179 305.493 C 340.179 305.268,340.393 305.085,340.654 305.085 C 341.436 305.085,350.127 298.341,353.341 295.241 C 354.987 293.653,356.961 291.892,357.728 291.326 C 358.495 290.761,359.717 289.543,360.442 288.619 C 361.168 287.695,363.067 285.593,364.662 283.948 C 368.846 279.633,380.060 264.423,380.060 263.064 C 380.060 262.723,382.549 258.668,382.917 258.410 C 383.438 258.044,388.030 248.072,389.705 243.669 C 390.581 241.366,391.437 239.302,391.607 239.083 C 394.360 235.542,398.730 213.336,399.653 198.201 C 400.714 180.801,396.879 153.293,392.425 146.361 C 392.214 146.032,391.394 143.968,390.603 141.775 C 384.981 126.181,373.441 107.911,360.948 94.826 C 356.413 90.076,350.272 84.430,350.636 85.344 M358.567 94.018 C 444.570 181.323,382.689 328.995,260.020 329.192 C 205.586 329.280,156.508 298.573,133.975 250.329 C 132.318 246.783,132.393 246.781,136.762 250.270 C 197.745 298.961,288.069 287.392,335.335 224.835 C 364.021 186.868,371.415 136.051,354.601 92.423 C 353.073 88.458,353.100 88.469,358.567 94.018 M152.941 129.968 C 149.397 131.375,141.477 135.120,141.193 135.524 C 140.959 135.856,138.775 137.147,134.997 139.185 C 131.906 140.852,130.009 142.141,124.489 146.323 C 122.001 148.208,119.461 150.110,118.843 150.548 C 117.575 151.449,111.644 156.804,108.896 159.529 C 100.898 167.461,91.443 179.745,86.955 188.036 C 86.005 189.791,85.085 191.320,84.910 191.435 C 84.217 191.890,80.196 200.617,77.932 206.580 C 77.307 208.225,76.677 209.661,76.531 209.771 C 74.481 211.317,68.594 239.526,68.594 247.804 C 68.594 248.952,68.407 250.077,68.179 250.306 C 67.658 250.827,67.919 264.859,68.560 270.788 C 70.070 284.750,73.357 299.833,76.298 306.295 C 77.642 309.247,79.362 313.525,79.362 313.914 C 79.362 314.397,84.527 325.161,84.877 325.408 C 85.208 325.641,86.500 327.827,88.537 331.603 C 90.193 334.673,91.459 336.519,95.888 342.319 C 97.876 344.922,99.779 347.467,100.118 347.975 C 100.457 348.483,101.923 350.123,103.376 351.618 C 104.830 353.114,106.706 355.175,107.546 356.199 C 108.386 357.222,109.791 358.626,110.668 359.318 C 111.545 360.010,113.724 361.954,115.510 363.638 C 118.390 366.354,120.272 367.856,127.218 372.989 C 130.624 375.506,133.810 377.532,137.388 379.456 C 139.362 380.518,141.071 381.527,141.186 381.697 C 141.579 382.282,148.956 385.750,153.938 387.693 C 156.680 388.761,159.462 389.903,160.120 390.229 C 173.471 396.849,205.732 400.272,227.753 397.405 C 238.140 396.052,253.011 392.550,254.530 391.098 C 254.808 390.833,256.830 389.918,259.023 389.065 C 279.117 381.251,300.008 366.802,313.176 351.611 L 315.193 349.283 313.628 349.971 C 237.541 383.424,148.374 341.120,124.991 260.474 C 119.298 240.836,117.985 214.832,121.838 198.006 C 123.271 191.752,127.232 177.772,127.658 177.468 C 127.812 177.358,128.836 174.935,129.935 172.084 C 132.012 166.692,135.465 159.070,135.987 158.724 C 136.153 158.614,137.154 156.909,138.213 154.935 C 140.911 149.904,142.943 146.795,147.335 140.977 C 149.431 138.200,151.148 135.807,151.149 135.661 C 151.151 135.514,152.407 134.147,153.941 132.623 C 157.960 128.629,157.746 128.061,152.941 129.968 M150.777 133.898 C 111.307 181.336,107.797 248.372,142.087 299.900 C 177.622 353.301,244.456 375.616,305.269 354.384 C 308.112 353.391,310.492 352.632,310.557 352.697 C 310.839 352.979,299.712 363.433,295.713 366.644 C 223.176 424.876,114.815 396.679,79.608 310.411 C 52.635 244.320,80.721 168.793,144.566 135.727 C 151.786 131.987,152.556 131.761,150.777 133.898 " stroke="none" fill="#eef3f8" fill-rule="evenodd"></path><path id="path2" d="M137.587 9.976 C 131.065 12.174,122.508 15.538,121.888 16.147 C 121.639 16.392,120.538 17.016,119.442 17.535 C 118.345 18.054,116.012 19.287,114.257 20.274 C 112.502 21.262,110.211 22.515,109.166 23.059 C 108.121 23.603,106.796 24.483,106.222 25.015 C 105.648 25.547,103.452 27.117,101.343 28.504 C 99.233 29.892,96.700 31.732,95.713 32.594 C 94.726 33.456,93.489 34.506,92.964 34.927 C 85.218 41.143,73.461 53.670,69.590 59.831 C 68.973 60.812,68.163 61.884,67.789 62.213 C 66.842 63.047,63.809 67.804,63.809 68.457 C 63.809 69.315,64.732 69.080,66.035 67.889 C 66.700 67.283,70.464 65.185,74.399 63.229 C 78.335 61.272,81.645 59.551,81.755 59.403 C 82.434 58.489,102.976 51.446,104.961 51.446 C 105.358 51.446,105.683 51.286,105.683 51.092 C 105.683 50.690,114.299 48.979,121.436 47.964 C 128.502 46.959,149.332 46.974,156.530 47.989 C 163.079 48.913,172.014 50.624,172.280 51.005 C 172.391 51.165,173.739 51.617,175.274 52.009 C 179.903 53.193,190.089 56.558,192.893 57.830 C 194.340 58.486,195.753 59.023,196.034 59.023 C 196.314 59.023,196.604 59.184,196.677 59.380 C 196.750 59.576,199.501 61.062,202.792 62.681 C 208.002 65.245,222.684 74.438,223.928 75.915 C 224.584 76.693,229.734 80.956,230.033 80.968 C 230.570 80.989,240.769 91.171,243.404 94.317 C 244.874 96.072,246.527 97.956,247.078 98.504 C 247.629 99.053,248.568 100.219,249.164 101.095 C 252.451 105.923,255.073 109.509,255.522 109.791 C 255.802 109.966,256.032 110.270,256.032 110.465 C 256.032 110.661,256.993 112.402,258.167 114.334 C 259.341 116.266,260.682 118.710,261.147 119.766 C 261.611 120.822,262.553 122.517,263.239 123.534 C 263.925 124.551,264.656 125.841,264.863 126.400 C 265.069 126.960,266.029 129.302,266.996 131.605 C 276.120 153.340,279.992 179.142,277.379 200.798 C 277.274 201.675,277.622 200.239,278.153 197.607 C 283.841 169.419,276.796 132.359,260.708 105.832 C 224.527 46.176,154.727 22.466,89.607 47.711 C 84.024 49.876,83.905 49.841,86.588 46.810 C 99.932 31.733,120.785 17.142,138.983 10.147 C 143.203 8.525,143.399 8.436,143.137 8.268 C 143.046 8.210,140.548 8.978,137.587 9.976 M331.007 64.378 C 331.007 64.692,331.321 65.261,331.705 65.642 C 332.556 66.490,334.250 69.593,337.449 76.171 C 338.783 78.913,340.035 81.258,340.231 81.382 C 341.197 81.994,348.434 102.910,348.603 105.579 C 348.614 105.746,348.773 106.064,348.958 106.287 C 351.188 108.974,353.506 135.368,352.582 147.557 C 351.895 156.609,349.643 171.087,348.921 171.087 C 348.744 171.087,348.669 171.446,348.754 171.884 C 348.838 172.323,348.773 172.682,348.608 172.682 C 348.444 172.682,347.978 173.983,347.573 175.573 C 346.082 181.428,341.952 193.127,340.499 195.613 C 340.243 196.052,338.634 199.167,336.923 202.536 C 335.213 205.905,332.240 210.979,330.317 213.813 C 328.393 216.646,326.640 219.273,326.421 219.650 C 325.713 220.867,323.705 223.512,323.021 224.128 C 322.655 224.457,321.299 226.072,320.007 227.717 C 317.468 230.949,308.155 240.454,305.882 242.133 C 305.115 242.700,303.767 243.861,302.888 244.712 C 300.948 246.592,297.718 249.252,297.376 249.252 C 296.962 249.252,290.153 254.177,289.811 254.724 C 289.635 255.005,289.338 255.234,289.150 255.234 C 288.962 255.234,287.042 256.269,284.883 257.534 C 282.724 258.799,279.835 260.358,278.465 260.997 C 277.094 261.637,275.972 262.318,275.972 262.510 C 275.972 262.702,275.793 262.748,275.573 262.612 C 275.354 262.477,275.174 262.535,275.174 262.742 C 275.174 263.272,266.520 266.923,260.283 269.025 C 257.396 269.998,254.764 270.946,254.432 271.133 C 247.192 275.216,216.666 278.231,199.202 276.587 C 197.253 276.404,197.244 276.408,198.804 276.767 C 214.324 280.336,235.772 279.873,254.623 275.562 C 325.146 259.435,371.215 192.010,360.526 120.566 C 358.824 109.188,356.419 100.630,351.372 87.985 C 349.768 83.969,349.858 83.940,353.603 87.255 C 368.671 100.596,383.180 121.462,390.056 139.681 C 391.029 142.258,391.963 144.367,392.131 144.367 C 392.476 144.367,392.079 142.391,391.611 141.775 C 391.444 141.555,390.769 139.671,390.111 137.587 C 387.985 130.855,383.803 120.718,382.872 120.040 C 382.721 119.930,382.034 118.674,381.345 117.248 C 378.914 112.221,374.904 105.284,374.428 105.284 C 374.275 105.284,373.390 104.073,372.462 102.592 C 370.724 99.819,367.468 95.476,365.811 93.719 C 365.294 93.170,363.464 91.107,361.745 89.133 C 358.476 85.380,352.870 79.855,348.667 76.243 C 344.611 72.759,340.804 69.795,340.379 69.793 C 340.160 69.791,339.262 69.139,338.385 68.343 C 334.899 65.181,331.007 63.089,331.007 64.378 M168.694 119.658 C 143.851 121.112,118.210 129.889,97.906 143.888 C 51.489 175.891,29.197 231.752,40.916 286.697 C 42.522 294.228,45.567 303.589,49.667 313.606 C 50.293 315.136,48.202 313.407,42.100 307.348 C 27.757 293.107,15.263 274.284,9.563 258.329 C 8.388 255.040,6.925 252.612,7.759 255.334 C 7.910 255.828,8.051 256.456,8.071 256.730 C 8.092 257.004,8.230 257.228,8.378 257.228 C 8.527 257.228,9.153 258.888,9.770 260.917 C 11.823 267.667,15.301 276.122,16.659 277.667 C 16.996 278.051,17.110 278.368,16.911 278.371 C 16.713 278.374,16.740 278.509,16.971 278.670 C 17.202 278.831,18.047 280.309,18.848 281.954 C 21.275 286.940,23.442 290.738,24.849 292.472 C 25.584 293.377,27.189 295.650,28.416 297.523 C 29.643 299.396,31.603 302.026,32.771 303.368 C 33.939 304.711,35.924 307.044,37.182 308.553 C 42.163 314.531,58.072 329.013,59.658 329.013 C 59.829 329.013,60.788 329.697,61.789 330.533 C 65.802 333.885,68.993 335.629,68.993 334.473 C 68.993 334.156,68.737 333.684,68.425 333.425 C 67.921 333.007,61.815 322.127,61.815 321.648 C 61.815 321.244,59.644 316.838,59.341 316.626 C 58.541 316.067,53.559 301.952,52.030 295.912 C 51.670 294.487,51.224 293.138,51.041 292.916 C 49.462 291.004,47.069 271.205,47.064 260.020 C 47.060 248.912,49.222 231.075,51.052 227.119 C 51.255 226.680,51.880 224.616,52.442 222.532 C 54.066 216.501,58.719 203.562,59.469 202.991 C 59.613 202.881,61.078 200.056,62.725 196.711 C 66.080 189.899,73.817 177.965,77.529 173.878 C 78.824 172.453,80.190 170.786,80.564 170.174 C 81.604 168.478,91.324 158.679,94.405 156.221 C 95.905 155.024,97.879 153.327,98.791 152.451 C 99.703 151.574,102.525 149.458,105.060 147.747 C 107.596 146.037,109.671 144.487,109.671 144.303 C 109.671 144.119,109.836 143.968,110.038 143.968 C 110.240 143.968,111.825 143.088,113.560 142.012 C 115.295 140.935,118.585 139.118,120.870 137.974 C 123.155 136.829,125.116 135.751,125.227 135.577 C 125.582 135.024,134.002 131.578,139.980 129.539 C 143.161 128.455,146.301 127.327,146.959 127.033 C 153.905 123.928,174.110 121.435,190.075 121.714 C 195.861 121.814,200.543 121.845,200.480 121.783 C 199.266 120.569,177.728 119.129,168.694 119.658 M121.308 203.477 C 115.717 238.979,126.219 278.114,149.229 307.525 C 187.433 356.356,252.183 373.925,309.947 351.133 C 316.691 348.472,316.692 348.467,309.464 355.884 C 295.098 370.628,276.102 383.223,259.123 389.264 C 257.642 389.791,256.431 390.358,256.431 390.525 C 256.431 390.938,256.987 390.906,257.448 390.465 C 257.656 390.266,259.801 389.476,262.213 388.709 C 270.155 386.185,278.567 382.706,279.864 381.409 C 280.167 381.106,280.613 380.857,280.855 380.857 C 281.564 380.857,293.128 374.357,294.062 373.433 C 294.531 372.969,295.992 371.912,297.308 371.084 C 300.546 369.047,305.484 365.276,305.484 364.840 C 305.484 364.646,305.887 364.324,306.381 364.126 C 307.637 363.620,316.408 355.416,320.043 351.346 C 321.708 349.482,323.575 347.418,324.193 346.760 C 325.992 344.842,329.811 339.925,329.811 339.526 C 329.811 339.325,330.381 338.538,331.078 337.776 C 334.934 333.563,337.632 327.494,334.248 330.647 C 333.754 331.107,329.996 333.167,325.897 335.224 C 321.798 337.281,318.222 339.153,317.951 339.384 C 316.466 340.645,295.165 347.746,293.819 347.428 C 293.654 347.390,293.519 347.509,293.519 347.693 C 293.519 348.885,276.138 351.275,265.005 351.615 C 252.922 351.984,229.365 349.541,228.116 347.789 C 228.006 347.635,226.301 347.095,224.327 346.589 C 216.910 344.687,205.167 340.540,203.390 339.195 C 203.061 338.946,201.087 337.951,199.003 336.984 C 193.627 334.488,190.411 332.624,184.122 328.361 C 181.092 326.307,178.475 324.626,178.306 324.626 C 178.137 324.626,177.207 323.888,176.238 322.985 C 173.929 320.834,170.286 317.849,169.953 317.836 C 169.422 317.816,159.187 307.566,156.310 304.174 C 151.115 298.045,150.201 296.886,147.757 293.315 C 146.441 291.393,145.099 289.547,144.774 289.214 C 143.983 288.402,141.538 284.245,138.946 279.305 C 137.778 277.080,136.367 274.587,135.809 273.765 C 135.252 272.944,134.796 272.101,134.796 271.893 C 134.796 271.685,134.144 270.050,133.347 268.260 C 132.550 266.470,131.665 264.287,131.379 263.410 C 131.094 262.532,130.114 259.751,129.202 257.228 C 126.808 250.606,126.480 249.526,125.406 244.733 C 122.465 231.598,121.281 217.795,122.036 205.430 C 122.551 196.987,122.396 196.570,121.308 203.477 " stroke="none" fill="#64646c" fill-rule="evenodd"></path><path id="path3" d="M132.095 13.045 C 130.499 13.830,129.270 14.547,129.362 14.639 C 129.454 14.731,130.938 14.086,132.661 13.206 C 134.383 12.326,135.613 11.608,135.394 11.612 C 135.174 11.616,133.690 12.261,132.095 13.045 M124.726 16.777 C 123.903 17.211,123.230 17.656,123.230 17.764 C 123.230 17.873,123.948 17.596,124.826 17.149 C 125.703 16.701,126.421 16.249,126.421 16.143 C 126.421 15.883,126.418 15.884,124.726 16.777 M115.952 21.921 C 114.252 23.010,112.861 23.993,112.861 24.106 C 112.861 24.310,118.298 20.935,119.023 20.282 C 119.874 19.514,118.877 20.046,115.952 21.921 M104.974 29.712 C 103.171 31.138,101.695 32.397,101.695 32.508 C 101.695 32.686,107.250 28.426,108.255 27.476 C 109.441 26.357,107.823 27.460,104.974 29.712 M93.702 39.582 C 90.950 42.269,87.989 45.287,87.121 46.291 C 86.253 47.294,86.979 46.627,88.734 44.810 C 90.489 42.992,93.539 39.981,95.513 38.120 C 97.488 36.258,99.013 34.727,98.903 34.716 C 98.794 34.706,96.453 36.896,93.702 39.582 M133.998 37.462 C 132.134 37.586,135.454 37.687,141.376 37.687 C 148.175 37.687,150.747 37.593,148.355 37.432 C 143.931 37.135,138.765 37.146,133.998 37.462 M127.324 38.173 C 127.930 38.264,128.827 38.262,129.318 38.167 C 129.808 38.072,129.312 37.997,128.215 38.000 C 127.119 38.003,126.717 38.081,127.324 38.173 M153.645 38.173 C 154.251 38.264,155.148 38.262,155.639 38.167 C 156.129 38.072,155.633 37.997,154.536 38.000 C 153.440 38.003,153.038 38.081,153.645 38.173 M123.933 38.567 C 124.429 38.663,125.147 38.659,125.528 38.559 C 125.909 38.459,125.503 38.381,124.626 38.386 C 123.749 38.390,123.437 38.472,123.933 38.567 M157.432 38.567 C 157.928 38.663,158.646 38.659,159.028 38.559 C 159.409 38.459,159.003 38.381,158.126 38.386 C 157.248 38.390,156.936 38.472,157.432 38.567 M96.311 44.764 C 94.995 45.222,94.098 45.653,94.317 45.722 C 94.536 45.792,95.882 45.412,97.308 44.879 C 100.468 43.698,99.648 43.603,96.311 44.764 M188.207 45.876 C 191.153 46.959,193.629 47.780,193.710 47.699 C 193.903 47.506,184.005 43.863,183.353 43.887 C 183.077 43.897,185.262 44.792,188.207 45.876 M91.128 46.714 C 88.955 47.595,88.142 48.138,89.729 47.649 C 91.195 47.196,93.982 45.920,93.519 45.912 C 93.300 45.909,92.224 46.269,91.128 46.714 M203.988 52.528 C 204.207 52.741,206.002 53.759,207.976 54.789 C 209.950 55.819,211.227 56.393,210.814 56.064 C 209.895 55.334,203.429 51.984,203.988 52.528 M216.949 59.901 C 217.357 60.386,226.142 66.557,225.924 66.205 C 225.800 66.004,224.223 64.781,222.421 63.488 C 219.146 61.140,216.573 59.452,216.949 59.901 M230.508 69.892 C 230.508 69.994,232.168 71.583,234.197 73.422 C 236.226 75.261,237.637 76.450,237.333 76.063 C 236.642 75.185,230.508 69.638,230.508 69.892 M241.276 80.359 C 243.131 82.223,244.738 83.749,244.848 83.749 C 244.957 83.749,243.530 82.223,241.675 80.359 C 239.820 78.495,238.213 76.969,238.103 76.969 C 237.994 76.969,239.421 78.495,241.276 80.359 M351.745 85.797 C 352.293 86.345,355.165 89.109,358.126 91.939 C 362.184 95.819,362.626 96.173,359.920 93.379 C 357.946 91.341,355.075 88.576,353.539 87.236 C 352.004 85.896,351.196 85.248,351.745 85.797 M351.392 87.936 C 351.399 88.156,351.750 89.053,352.172 89.930 C 352.594 90.808,352.828 91.077,352.691 90.528 C 352.410 89.399,351.371 87.326,351.392 87.936 M251.294 91.924 C 252.441 93.460,253.645 94.985,253.969 95.314 C 255.015 96.376,251.889 92.079,250.526 90.581 C 249.801 89.784,250.146 90.389,251.294 91.924 M353.051 92.124 C 353.588 94.017,355.872 100.093,355.999 99.966 C 356.184 99.782,353.807 92.956,353.268 92.124 C 352.924 91.592,352.900 91.592,353.051 92.124 M363.310 97.433 C 363.310 97.501,363.882 98.085,364.581 98.729 L 365.851 99.900 364.880 98.626 C 364.055 97.544,363.310 96.978,363.310 97.433 M256.253 98.804 C 258.384 102.089,258.947 102.891,259.122 102.891 C 259.228 102.891,258.994 102.398,258.603 101.795 C 256.471 98.509,255.908 97.707,255.734 97.707 C 255.628 97.707,255.862 98.200,256.253 98.804 M368.681 103.689 C 372.284 108.217,373.228 109.088,370.146 105.041 C 368.792 103.262,367.301 101.467,366.833 101.053 C 366.366 100.638,367.197 101.825,368.681 103.689 M260.049 104.686 C 260.542 105.563,261.116 106.461,261.326 106.680 C 261.923 107.306,260.557 104.779,259.817 103.888 C 259.452 103.450,259.557 103.809,260.049 104.686 M265.486 114.645 C 266.074 115.845,266.623 116.760,266.705 116.679 C 266.884 116.499,264.872 112.463,264.604 112.463 C 264.500 112.463,264.897 113.445,265.486 114.645 M377.134 115.354 C 379.178 118.558,380.316 119.943,378.855 117.448 C 377.570 115.253,375.671 112.463,375.462 112.463 C 375.368 112.463,376.120 113.764,377.134 115.354 M360.190 117.846 C 360.176 118.285,360.314 119.362,360.496 120.239 C 360.773 121.581,360.825 121.644,360.824 120.638 C 360.823 119.241,360.227 116.620,360.190 117.846 M267.662 119.043 C 267.657 119.574,269.926 124.341,269.940 123.829 C 269.946 123.609,269.437 122.353,268.808 121.037 C 268.180 119.721,267.664 118.824,267.662 119.043 M169.591 119.533 C 170.414 119.619,171.760 119.619,172.582 119.533 C 173.405 119.447,172.732 119.376,171.087 119.376 C 169.442 119.376,168.769 119.447,169.591 119.533 M180.151 119.530 C 180.859 119.618,182.115 119.620,182.942 119.533 C 183.770 119.447,183.190 119.375,181.655 119.373 C 180.120 119.371,179.443 119.442,180.151 119.530 M163.609 119.916 C 163.993 120.016,164.621 120.016,165.005 119.916 C 165.389 119.816,165.075 119.734,164.307 119.734 C 163.539 119.734,163.225 119.816,163.609 119.916 M187.936 119.916 C 188.320 120.016,188.948 120.016,189.332 119.916 C 189.716 119.816,189.402 119.734,188.634 119.734 C 187.866 119.734,187.552 119.816,187.936 119.916 M160.020 120.315 C 160.404 120.415,161.032 120.415,161.416 120.315 C 161.800 120.214,161.486 120.132,160.718 120.132 C 159.950 120.132,159.636 120.214,160.020 120.315 M191.426 120.311 C 191.974 120.401,194.666 120.835,197.408 121.277 C 200.150 121.718,202.752 122.167,203.190 122.275 C 203.889 122.446,203.905 122.418,203.318 122.049 C 202.583 121.586,193.024 120.018,191.426 120.098 L 190.429 120.149 191.426 120.311 M151.672 121.426 C 147.007 122.311,144.051 123.103,147.358 122.581 C 153.244 121.652,159.097 120.501,157.926 120.502 C 157.159 120.503,154.344 120.919,151.672 121.426 M361.139 124.028 C 362.085 135.112,362.189 137.797,361.958 145.165 C 361.816 149.661,361.623 154.327,361.528 155.533 L 361.356 157.727 361.784 155.533 C 362.484 151.943,362.333 129.742,361.578 125.424 C 361.177 123.128,361.019 122.625,361.139 124.028 M142.572 123.419 C 140.431 124.124,141.274 124.152,143.769 123.458 C 144.865 123.153,145.404 122.901,144.965 122.898 C 144.526 122.895,143.450 123.129,142.572 123.419 M385.528 130.194 C 386.559 132.269,387.467 133.903,387.545 133.824 C 387.722 133.648,384.112 126.421,383.847 126.421 C 383.741 126.421,384.498 128.119,385.528 130.194 M122.695 130.002 C 119.499 131.402,118.360 132.004,118.908 132.004 C 119.176 132.004,126.578 128.787,126.786 128.580 C 127.235 128.134,125.899 128.598,122.695 130.002 M115.653 133.200 C 114.885 133.621,114.437 133.965,114.656 133.965 C 114.875 133.965,115.683 133.621,116.451 133.200 C 117.218 132.780,117.667 132.436,117.448 132.436 C 117.228 132.436,116.421 132.780,115.653 133.200 M105.284 138.820 C 103.420 139.935,101.715 141.045,101.496 141.285 C 101.276 141.525,101.545 141.450,102.094 141.117 C 102.642 140.785,104.392 139.744,105.982 138.805 C 108.458 137.343,109.228 136.787,108.774 136.790 C 108.719 136.791,107.149 137.704,105.284 138.820 M275.214 139.649 C 275.192 139.797,275.555 141.502,276.019 143.438 C 276.484 145.375,277.277 149.113,277.781 151.745 C 278.286 154.377,278.712 156.082,278.728 155.533 C 278.784 153.619,275.406 138.349,275.214 139.649 M92.893 147.122 C 90.583 148.856,88.433 150.593,88.115 150.982 C 87.797 151.371,89.260 150.355,91.366 148.726 C 93.471 147.096,95.714 145.369,96.351 144.888 C 96.987 144.406,97.414 144.002,97.300 143.990 C 97.187 143.978,95.203 145.387,92.893 147.122 M391.840 145.264 C 391.988 145.758,392.352 146.417,392.649 146.729 C 393.104 147.208,393.118 147.067,392.739 145.832 C 392.491 145.026,392.127 144.367,391.930 144.367 C 391.733 144.367,391.692 144.771,391.840 145.264 M80.359 157.786 C 76.381 161.620,76.307 161.716,79.561 158.815 C 83.046 155.708,85.261 153.530,84.915 153.549 C 84.822 153.554,82.772 155.461,80.359 157.786 M361.010 159.123 C 361.010 159.890,361.092 160.204,361.192 159.821 C 361.292 159.437,361.292 158.809,361.192 158.425 C 361.092 158.041,361.010 158.355,361.010 159.123 M73.159 165.204 C 69.768 168.836,68.845 169.890,69.057 169.890 C 69.179 169.890,70.575 168.455,72.159 166.700 C 73.743 164.945,74.973 163.509,74.891 163.509 C 74.809 163.509,74.030 164.272,73.159 165.204 M279.654 164.706 C 279.654 165.474,279.736 165.788,279.836 165.404 C 279.937 165.020,279.937 164.392,279.836 164.008 C 279.736 163.624,279.654 163.938,279.654 164.706 M280.125 176.072 C 280.125 180.020,280.185 181.581,280.258 179.541 C 280.330 177.501,280.330 174.271,280.257 172.363 C 280.184 170.455,280.124 172.124,280.125 176.072 M63.679 176.770 C 61.561 179.644,59.842 182.235,60.304 181.854 C 60.752 181.485,66.176 173.878,65.991 173.878 C 65.891 173.878,64.850 175.179,63.679 176.770 M354.219 186.927 C 352.473 191.921,352.408 192.138,352.869 191.426 C 353.414 190.585,355.784 183.767,355.597 183.579 C 355.512 183.495,354.892 185.001,354.219 186.927 M279.654 187.438 C 279.654 188.205,279.736 188.519,279.836 188.136 C 279.937 187.752,279.937 187.124,279.836 186.740 C 279.736 186.356,279.654 186.670,279.654 187.438 M54.517 191.127 C 52.538 194.692,50.574 198.664,50.722 198.806 C 50.791 198.872,52.061 196.611,53.544 193.780 C 56.322 188.478,56.972 186.705,54.517 191.127 M278.225 197.529 C 277.831 199.766,277.414 201.932,277.296 202.343 C 277.175 202.770,277.249 202.989,277.469 202.852 C 277.865 202.607,279.407 193.930,279.107 193.630 C 279.015 193.539,278.618 195.293,278.225 197.529 M122.276 195.645 C 121.933 196.540,120.833 203.386,120.872 204.387 C 120.889 204.826,121.327 202.947,121.846 200.211 C 122.732 195.538,122.867 194.105,122.276 195.645 M346.119 205.484 C 345.648 206.416,344.807 207.986,344.251 208.973 C 343.694 209.960,343.434 210.588,343.673 210.369 C 344.246 209.842,347.492 203.789,347.201 203.789 C 347.077 203.789,346.590 204.551,346.119 205.484 M47.502 205.827 C 47.256 206.532,47.125 207.178,47.210 207.263 C 47.296 207.349,47.566 206.842,47.812 206.137 C 48.058 205.432,48.189 204.786,48.104 204.701 C 48.018 204.615,47.748 205.122,47.502 205.827 M120.531 206.580 C 120.531 207.348,120.613 207.662,120.714 207.278 C 120.814 206.894,120.814 206.266,120.714 205.882 C 120.613 205.499,120.531 205.813,120.531 206.580 M46.467 208.457 C 45.677 210.397,43.890 215.907,44.011 216.028 C 44.087 216.104,44.798 214.333,45.592 212.092 C 46.385 209.851,46.972 207.956,46.896 207.880 C 46.821 207.804,46.627 208.064,46.467 208.457 M120.154 210.768 C 120.157 211.864,120.234 212.266,120.326 211.660 C 120.418 211.053,120.415 210.156,120.321 209.666 C 120.226 209.175,120.151 209.671,120.154 210.768 M119.765 215.952 C 119.767 217.268,119.841 217.759,119.930 217.042 C 120.019 216.325,120.017 215.248,119.926 214.649 C 119.835 214.050,119.762 214.636,119.765 215.952 M43.299 217.576 C 43.152 218.160,43.109 218.715,43.203 218.809 C 43.297 218.903,43.494 218.502,43.641 217.918 C 43.787 217.333,43.830 216.778,43.736 216.684 C 43.642 216.590,43.445 216.991,43.299 217.576 M335.066 222.931 C 333.281 225.344,331.898 227.318,331.994 227.318 C 332.089 227.318,333.217 225.927,334.500 224.227 C 337.400 220.383,338.687 218.544,338.476 218.544 C 338.386 218.544,336.852 220.518,335.066 222.931 M119.765 229.113 C 119.767 230.429,119.841 230.919,119.930 230.202 C 120.019 229.485,120.017 228.409,119.926 227.809 C 119.835 227.210,119.762 227.797,119.765 229.113 M326.195 233.799 C 324.364 235.828,323.370 237.039,323.986 236.491 C 325.311 235.311,329.975 230.110,329.708 230.110 C 329.607 230.110,328.026 231.770,326.195 233.799 M120.154 234.297 C 120.157 235.394,120.234 235.795,120.326 235.189 C 120.418 234.583,120.415 233.685,120.321 233.195 C 120.226 232.704,120.151 233.200,120.154 234.297 M120.531 238.485 C 120.531 239.252,120.613 239.566,120.714 239.182 C 120.814 238.799,120.814 238.170,120.714 237.787 C 120.613 237.403,120.531 237.717,120.531 238.485 M319.031 241.176 L 316.451 243.868 319.143 241.288 C 320.623 239.868,321.834 238.657,321.834 238.596 C 321.834 238.302,321.428 238.676,319.031 241.176 M120.892 240.912 C 120.830 242.089,122.627 252.030,123.228 253.838 L 123.626 255.035 123.441 253.838 C 123.339 253.180,122.810 250.219,122.265 247.258 C 121.720 244.297,121.200 241.426,121.110 240.877 L 120.946 239.880 120.892 240.912 M38.386 241.874 C 38.390 242.752,38.472 243.064,38.567 242.568 C 38.663 242.072,38.659 241.354,38.559 240.972 C 38.459 240.591,38.381 240.997,38.386 241.874 M37.748 246.959 C 37.431 251.042,37.485 265.364,37.830 268.594 C 37.971 269.910,38.086 264.840,38.086 257.328 C 38.086 249.816,38.067 243.669,38.045 243.669 C 38.023 243.669,37.889 245.150,37.748 246.959 M314.635 245.165 L 313.260 246.660 314.756 245.286 C 316.148 244.006,316.435 243.669,316.130 243.669 C 316.063 243.669,315.390 244.342,314.635 245.165 M309.255 249.386 C 307.271 250.957,305.028 252.754,304.270 253.378 L 302.891 254.512 304.487 253.407 C 308.336 250.739,313.846 246.257,312.985 246.495 C 312.917 246.513,311.238 247.814,309.255 249.386 M7.283 253.041 C 7.518 253.809,7.844 254.437,8.006 254.437 C 8.168 254.437,8.107 253.809,7.872 253.041 C 7.636 252.273,7.311 251.645,7.149 251.645 C 6.987 251.645,7.047 252.273,7.283 253.041 M298.903 256.850 C 298.245 257.297,296.496 258.381,295.015 259.258 C 292.497 260.750,291.230 261.819,293.220 260.773 C 294.671 260.010,300.299 256.369,300.299 256.193 C 300.299 255.931,300.159 255.997,298.903 256.850 M10.796 261.416 C 10.796 261.635,11.052 262.263,11.366 262.812 C 11.679 263.360,11.936 263.629,11.936 263.410 C 11.936 263.190,11.679 262.562,11.366 262.014 C 11.052 261.466,10.796 261.196,10.796 261.416 M11.964 264.148 C 11.964 264.582,15.938 272.383,16.159 272.383 C 16.337 272.383,12.493 264.447,12.118 264.041 C 12.033 263.950,11.964 263.998,11.964 264.148 M283.549 265.402 C 283.001 265.714,280.802 266.724,278.662 267.645 C 276.522 268.567,274.839 269.388,274.921 269.470 C 275.092 269.641,281.367 266.953,283.749 265.688 C 284.626 265.222,285.165 264.839,284.945 264.837 C 284.726 264.835,284.098 265.089,283.549 265.402 M38.386 272.981 C 38.390 273.858,38.472 274.170,38.567 273.674 C 38.663 273.178,38.659 272.460,38.559 272.079 C 38.459 271.698,38.381 272.104,38.386 272.981 M128.814 272.104 C 128.814 272.578,132.115 280.158,132.496 280.558 C 132.705 280.778,132.571 280.239,132.198 279.362 C 131.825 278.485,130.997 276.522,130.358 275.000 C 129.251 272.365,128.814 271.544,128.814 272.104 M256.992 275.019 C 256.752 275.118,254.060 275.722,251.009 276.360 C 247.959 276.999,245.912 277.529,246.461 277.538 C 247.569 277.556,258.024 275.310,258.351 274.983 C 258.597 274.736,257.612 274.762,256.992 275.019 M196.786 276.732 C 197.033 277.132,206.101 278.578,206.412 278.267 C 206.525 278.155,205.577 277.939,204.305 277.788 C 203.034 277.637,201.366 277.365,200.598 277.183 C 197.902 276.544,196.573 276.386,196.786 276.732 M243.370 277.842 C 243.754 277.943,244.382 277.943,244.766 277.842 C 245.150 277.742,244.835 277.660,244.068 277.660 C 243.300 277.660,242.986 277.742,243.370 277.842 M19.665 278.963 C 20.002 279.621,20.577 280.518,20.941 280.957 C 21.306 281.396,21.201 281.037,20.708 280.160 C 19.621 278.224,18.807 277.290,19.665 278.963 M212.068 279.046 C 212.565 279.141,213.282 279.138,213.664 279.038 C 214.045 278.938,213.639 278.860,212.762 278.864 C 211.884 278.869,211.572 278.950,212.068 279.046 M233.604 279.046 C 234.100 279.141,234.818 279.138,235.199 279.038 C 235.580 278.938,235.174 278.860,234.297 278.864 C 233.420 278.869,233.108 278.950,233.604 279.046 M220.656 279.459 C 222.366 279.534,225.058 279.534,226.638 279.458 C 228.219 279.383,226.820 279.321,223.529 279.322 C 220.239 279.323,218.946 279.384,220.656 279.459 M132.840 281.356 C 132.840 281.575,133.451 282.921,134.197 284.347 C 134.944 285.773,135.555 286.760,135.555 286.540 C 135.555 286.321,134.944 284.975,134.197 283.549 C 133.451 282.124,132.840 281.137,132.840 281.356 M22.201 283.157 C 22.591 283.818,23.328 284.850,23.838 285.450 C 24.348 286.050,24.103 285.508,23.293 284.247 C 21.759 281.857,20.965 281.064,22.201 283.157 M138.262 291.925 C 138.878 293.022,139.717 294.323,140.127 294.816 L 140.872 295.713 140.293 294.716 C 139.974 294.167,139.218 292.866,138.612 291.825 C 138.007 290.783,137.428 289.930,137.327 289.930 C 137.225 289.930,137.646 290.828,138.262 291.925 M28.251 291.825 C 28.684 292.428,29.694 293.639,30.494 294.516 C 31.413 295.524,31.193 295.120,29.896 293.420 C 27.913 290.820,26.646 289.591,28.251 291.825 M141.385 296.936 C 141.756 297.608,142.414 298.595,142.848 299.129 L 143.636 300.100 142.962 298.877 C 142.591 298.204,141.933 297.217,141.499 296.684 L 140.711 295.713 141.385 296.936 M43.868 298.798 C 43.868 299.198,46.723 307.255,47.085 307.876 C 47.737 308.996,47.459 308.015,45.836 303.463 C 44.360 299.327,43.868 298.161,43.868 298.798 M35.294 300.284 C 36.855 302.256,43.713 309.183,46.461 311.560 C 48.223 313.085,47.824 312.624,45.381 310.310 C 43.253 308.294,39.933 304.987,38.004 302.960 C 36.075 300.934,34.855 299.729,35.294 300.284 M146.798 304.833 C 147.545 305.900,148.749 307.426,149.474 308.223 C 150.199 309.019,149.854 308.415,148.706 306.879 C 146.174 303.491,144.920 302.145,146.798 304.833 M152.343 311.989 C 152.343 312.058,152.926 312.641,153.639 313.285 L 154.935 314.457 153.764 313.161 C 152.672 311.952,152.343 311.681,152.343 311.989 M155.135 314.897 C 155.135 315.103,156.705 316.793,158.624 318.653 L 162.114 322.034 158.724 318.457 C 156.859 316.489,155.289 314.799,155.234 314.701 C 155.179 314.603,155.135 314.692,155.135 314.897 M162.911 322.987 C 163.883 324.122,169.093 328.772,169.093 328.505 C 169.093 328.400,167.522 326.905,165.603 325.184 C 163.684 323.463,162.473 322.474,162.911 322.987 M171.884 330.792 C 171.884 331.044,177.666 335.387,180.060 336.933 C 182.454 338.479,181.427 337.648,175.972 333.626 C 173.724 331.968,171.884 330.693,171.884 330.792 M188.135 342.034 C 189.176 342.890,195.414 346.309,195.414 346.024 C 195.414 345.918,194.202 345.164,192.722 344.348 C 191.241 343.533,189.402 342.513,188.634 342.081 C 187.395 341.385,187.339 341.380,188.135 342.034 M314.247 349.736 C 314.709 350.028,313.226 351.707,307.293 357.606 C 303.146 361.730,300.828 364.175,302.143 363.038 C 305.914 359.776,315.102 350.150,314.843 349.731 C 314.714 349.523,314.395 349.355,314.134 349.358 C 313.845 349.362,313.889 349.509,314.247 349.736 M308.973 351.457 C 307.273 352.127,305.952 352.745,306.037 352.830 C 306.219 353.012,312.662 350.571,312.662 350.320 C 312.662 350.042,312.216 350.179,308.973 351.457 M206.950 351.349 C 209.214 352.403,215.424 354.599,215.612 354.411 C 215.691 354.333,213.656 353.502,211.090 352.565 C 205.471 350.514,204.621 350.265,206.950 351.349 M302.293 353.938 C 300.867 354.452,299.890 354.887,300.122 354.904 C 300.656 354.944,305.484 353.323,305.484 353.104 C 305.484 352.835,305.005 352.960,302.293 353.938 M216.750 354.935 C 217.188 355.124,217.817 355.278,218.146 355.278 C 218.523 355.278,218.449 355.151,217.946 354.935 C 217.507 354.747,216.879 354.592,216.550 354.592 C 216.173 354.592,216.247 354.719,216.750 354.935 M238.983 359.996 C 239.367 360.096,239.995 360.096,240.379 359.996 C 240.763 359.895,240.449 359.813,239.681 359.813 C 238.913 359.813,238.599 359.895,238.983 359.996 M276.869 359.996 C 277.253 360.096,277.881 360.096,278.265 359.996 C 278.649 359.895,278.335 359.813,277.567 359.813 C 276.800 359.813,276.486 359.895,276.869 359.996 M243.071 360.611 C 245.816 361.189,270.692 361.200,273.779 360.625 C 276.011 360.209,275.918 360.197,272.383 360.449 C 267.529 360.794,249.802 360.798,244.865 360.455 C 241.660 360.232,241.384 360.256,243.071 360.611 M295.912 367.753 C 292.658 370.418,290.973 371.961,292.323 371.039 C 294.606 369.479,300.133 364.734,299.425 364.941 C 299.358 364.961,297.777 366.227,295.912 367.753 M284.478 376.001 C 281.283 378.085,280.096 379.110,282.552 377.664 C 284.810 376.334,287.537 374.471,287.537 374.258 C 287.537 374.000,287.609 373.959,284.478 376.001 M268.594 384.860 C 265.962 386.145,263.957 387.206,264.138 387.218 C 264.626 387.248,273.579 382.945,273.579 382.680 C 273.579 382.396,274.167 382.139,268.594 384.860 M255.533 390.305 C 255.150 390.405,254.835 390.637,254.835 390.819 C 254.835 391.002,255.194 391.058,255.633 390.943 C 256.072 390.828,256.431 390.576,256.431 390.382 C 256.431 390.188,256.386 390.051,256.331 390.076 C 256.276 390.102,255.917 390.205,255.533 390.305 " stroke="none" fill="#8f9292" fill-rule="evenodd"></path><path id="path4" d="M182.453 1.566 C 180.917 1.692,184.776 1.795,191.027 1.795 C 197.278 1.795,201.047 1.683,199.402 1.548 C 195.739 1.245,186.243 1.255,182.453 1.566 M176.171 2.275 C 176.665 2.371,177.473 2.371,177.966 2.275 C 178.460 2.180,178.056 2.103,177.069 2.103 C 176.082 2.103,175.678 2.180,176.171 2.275 M203.894 2.280 C 204.500 2.372,205.397 2.369,205.888 2.275 C 206.378 2.180,205.882 2.105,204.786 2.108 C 203.689 2.111,203.288 2.189,203.894 2.280 M168.096 3.226 C 163.590 4.015,161.508 4.583,164.706 4.149 C 169.579 3.489,175.115 2.473,173.878 2.466 C 173.111 2.461,170.508 2.803,168.096 3.226 M207.976 2.670 C 208.634 2.757,211.756 3.272,214.915 3.814 C 218.073 4.357,220.750 4.707,220.863 4.594 C 220.977 4.480,220.955 4.387,220.815 4.387 C 220.675 4.387,218.003 3.938,214.877 3.390 C 211.750 2.841,208.650 2.420,207.986 2.453 L 206.780 2.512 207.976 2.670 M160.319 4.786 C 159.530 5.038,159.488 5.105,160.120 5.105 C 160.558 5.105,161.366 4.961,161.914 4.786 C 162.704 4.533,162.745 4.466,162.114 4.466 C 161.675 4.466,160.867 4.610,160.319 4.786 M139.581 11.292 C 135.991 12.760,132.568 14.429,134.397 13.819 C 135.448 13.468,144.161 9.874,144.334 9.720 C 144.851 9.258,143.294 9.773,139.581 11.292 M239.282 10.074 C 239.616 10.414,247.410 13.540,247.557 13.393 C 247.633 13.318,246.206 12.633,244.386 11.871 C 240.949 10.432,238.939 9.725,239.282 10.074 M249.252 14.357 C 250.020 14.777,250.828 15.121,251.047 15.121 C 251.266 15.121,250.818 14.777,250.050 14.357 C 249.282 13.937,248.475 13.593,248.255 13.593 C 248.036 13.593,248.485 13.937,249.252 14.357 M256.431 17.688 C 256.431 17.839,258.695 19.196,263.310 21.812 C 263.475 21.905,263.609 21.897,263.609 21.793 C 263.609 21.642,261.345 20.285,256.730 17.670 C 256.565 17.577,256.431 17.585,256.431 17.688 M121.735 19.982 C 120.583 20.653,119.641 21.294,119.641 21.407 C 119.641 21.628,123.188 19.656,123.809 19.090 C 124.484 18.473,123.871 18.737,121.735 19.982 M117.747 22.379 C 116.387 23.249,115.948 23.834,117.149 23.174 C 118.064 22.671,119.497 21.562,119.242 21.555 C 119.133 21.552,118.460 21.922,117.747 22.379 M264.606 22.540 C 265.045 22.897,265.763 23.365,266.201 23.581 L 266.999 23.972 266.201 23.323 C 265.763 22.966,265.045 22.497,264.606 22.282 L 263.809 21.890 264.606 22.540 M269.791 25.812 C 270.487 26.542,278.797 32.680,278.552 32.284 C 278.423 32.075,276.938 30.863,275.251 29.590 C 271.815 26.998,269.186 25.179,269.791 25.812 M108.175 28.934 C 106.585 30.144,105.284 31.221,105.284 31.329 C 105.284 31.436,106.630 30.511,108.275 29.273 C 110.873 27.318,111.579 26.697,111.167 26.727 C 111.112 26.731,109.766 27.724,108.175 28.934 M285.502 38.532 C 287.782 40.706,291.281 44.193,293.278 46.281 C 295.275 48.370,296.374 49.444,295.720 48.668 C 293.508 46.044,286.955 39.438,284.148 37.002 C 282.585 35.647,283.182 36.321,285.502 38.532 M94.696 40.432 C 89.783 45.146,88.162 47.212,90.399 45.911 C 90.960 45.585,90.990 45.481,90.528 45.456 C 90.199 45.438,92.353 43.102,95.314 40.264 C 98.275 37.426,100.599 35.102,100.479 35.100 C 100.358 35.097,97.756 37.496,94.696 40.432 M137.687 36.189 C 139.606 36.262,142.747 36.262,144.666 36.189 C 146.585 36.116,145.015 36.056,141.176 36.056 C 137.338 36.056,135.768 36.116,137.687 36.189 M130.115 36.577 C 130.721 36.669,131.619 36.667,132.109 36.572 C 132.600 36.477,132.104 36.402,131.007 36.405 C 129.910 36.408,129.509 36.486,130.115 36.577 M151.252 36.577 C 151.858 36.669,152.755 36.667,153.246 36.572 C 153.736 36.477,153.240 36.402,152.144 36.405 C 151.047 36.408,150.646 36.486,151.252 36.577 M125.927 36.972 C 126.423 37.067,127.141 37.064,127.522 36.964 C 127.903 36.864,127.498 36.786,126.620 36.791 C 125.743 36.795,125.431 36.877,125.927 36.972 M155.633 36.965 C 156.017 37.065,156.645 37.065,157.029 36.965 C 157.413 36.865,157.099 36.782,156.331 36.782 C 155.563 36.782,155.249 36.865,155.633 36.965 M120.638 37.488 C 119.295 37.728,119.232 37.777,120.239 37.800 C 120.897 37.815,122.243 37.684,123.230 37.508 C 124.840 37.221,124.881 37.189,123.629 37.195 C 122.861 37.199,121.515 37.330,120.638 37.488 M158.629 37.371 C 159.125 37.466,159.843 37.463,160.224 37.363 C 160.605 37.263,160.199 37.185,159.322 37.189 C 158.445 37.194,158.133 37.275,158.629 37.371 M161.914 37.766 C 162.914 37.936,173.601 40.079,175.474 40.485 L 176.471 40.700 175.493 40.274 C 174.165 39.694,163.157 37.482,161.914 37.545 L 160.917 37.596 161.914 37.766 M112.723 38.897 C 110.343 39.416,107.920 40.030,107.339 40.261 C 106.290 40.679,106.292 40.681,107.478 40.438 C 113.866 39.128,118.857 37.956,118.046 37.955 C 117.498 37.955,115.102 38.379,112.723 38.897 M190.628 45.167 C 190.950 45.492,195.961 47.442,196.104 47.299 C 196.177 47.227,195.378 46.805,194.329 46.361 C 192.217 45.468,190.320 44.856,190.628 45.167 M197.408 48.056 C 197.956 48.369,198.584 48.626,198.804 48.626 C 199.023 48.626,198.754 48.369,198.205 48.056 C 197.657 47.742,197.029 47.486,196.810 47.486 C 196.590 47.486,196.859 47.742,197.408 48.056 M208.973 53.567 C 208.973 53.678,210.184 54.469,211.665 55.323 C 213.146 56.178,214.850 57.201,215.454 57.597 C 216.057 57.993,216.550 58.225,216.550 58.113 C 216.550 57.893,213.905 56.187,210.867 54.448 C 209.826 53.852,208.973 53.455,208.973 53.567 M302.334 57.228 C 303.900 59.312,305.272 61.017,305.382 61.017 C 305.491 61.017,305.409 60.793,305.198 60.518 C 304.988 60.244,303.702 58.539,302.340 56.730 C 300.978 54.920,299.779 53.440,299.675 53.440 C 299.572 53.440,300.768 55.145,302.334 57.228 M224.526 63.559 C 224.526 63.670,225.648 64.594,227.019 65.610 C 228.390 66.627,228.883 66.894,228.116 66.203 C 226.418 64.675,224.526 63.282,224.526 63.559 M232.502 70.031 C 233.928 71.306,237.338 74.507,240.080 77.145 L 245.065 81.940 240.479 77.243 C 237.956 74.659,234.546 71.458,232.901 70.129 L 229.910 67.713 232.502 70.031 M310.592 69.392 C 312.387 72.653,313.547 74.576,313.720 74.576 C 313.954 74.576,311.503 70.238,310.545 68.959 C 309.929 68.136,309.936 68.199,310.592 69.392 M136.424 69.143 C 136.515 69.226,139.821 69.385,143.769 69.498 C 148.739 69.639,149.782 69.607,147.159 69.392 C 143.077 69.058,136.152 68.898,136.424 69.143 M131.516 69.684 C 132.454 69.769,133.890 69.767,134.706 69.682 C 135.523 69.596,134.756 69.527,133.001 69.529 C 131.246 69.530,130.578 69.600,131.516 69.684 M121.258 70.425 C 117.262 71.006,115.276 71.552,118.644 71.143 C 127.999 70.007,128.855 69.877,127.019 69.877 C 125.922 69.877,123.330 70.123,121.258 70.425 M152.847 70.077 C 153.453 70.168,154.350 70.166,154.841 70.071 C 155.331 69.977,154.835 69.902,153.739 69.905 C 152.642 69.908,152.241 69.985,152.847 70.077 M156.929 70.478 C 157.587 70.571,160.638 71.073,163.709 71.595 C 172.411 73.073,172.323 73.061,170.887 72.588 C 169.174 72.024,158.051 70.178,156.791 70.249 C 155.792 70.306,155.800 70.318,156.929 70.478 M112.662 71.975 C 109.988 72.662,111.242 72.688,114.257 72.008 C 115.573 71.711,116.201 71.466,115.653 71.465 C 115.105 71.464,113.759 71.693,112.662 71.975 M88.417 79.230 C 86.488 80.014,84.976 80.722,85.057 80.803 C 85.199 80.945,92.149 78.255,92.489 77.927 C 92.920 77.511,91.632 77.924,88.417 79.230 M189.465 78.325 C 189.808 78.655,194.757 80.551,194.900 80.408 C 194.982 80.325,193.873 79.787,192.436 79.212 C 189.969 78.224,189.085 77.960,189.465 78.325 M196.610 81.356 C 197.378 81.776,198.185 82.120,198.405 82.120 C 198.624 82.120,198.175 81.776,197.408 81.356 C 196.640 80.936,195.833 80.592,195.613 80.592 C 195.394 80.592,195.842 80.936,196.610 81.356 M316.807 80.957 C 317.365 82.597,321.222 91.274,321.340 91.156 C 321.526 90.970,318.576 83.927,317.485 81.954 C 317.000 81.077,316.695 80.628,316.807 80.957 M81.755 82.154 C 80.987 82.574,80.538 82.918,80.758 82.918 C 80.977 82.918,81.785 82.574,82.552 82.154 C 83.320 81.733,83.769 81.389,83.549 81.389 C 83.330 81.389,82.522 81.733,81.755 82.154 M71.113 87.653 C 69.318 88.694,67.703 89.705,67.524 89.901 C 67.131 90.331,67.158 90.318,71.286 87.955 C 73.096 86.919,74.576 85.998,74.576 85.907 C 74.576 85.647,74.546 85.662,71.113 87.653 M250.067 88.136 C 252.452 91.128,253.331 92.052,252.152 90.329 C 251.702 89.671,250.583 88.325,249.667 87.338 C 248.313 85.880,248.388 86.030,250.067 88.136 M206.979 86.280 C 206.979 86.453,208.903 87.613,212.164 89.408 C 213.356 90.064,213.419 90.071,212.596 89.455 C 211.317 88.497,206.979 86.046,206.979 86.280 M353.601 89.947 C 353.731 90.286,353.938 90.462,354.061 90.339 C 354.184 90.216,354.924 90.702,355.707 91.418 C 357.023 92.624,357.011 92.594,355.552 91.026 C 353.927 89.280,353.188 88.871,353.601 89.947 M219.342 93.821 C 219.342 93.931,221.047 95.302,223.131 96.868 C 225.214 98.434,226.919 99.631,226.919 99.527 C 226.919 99.423,225.439 98.224,223.629 96.862 C 221.820 95.501,220.115 94.214,219.840 94.004 C 219.566 93.793,219.342 93.711,219.342 93.821 M360.698 96.510 C 364.687 100.838,365.746 101.848,363.416 99.103 C 362.298 97.787,360.609 95.992,359.662 95.115 C 358.715 94.237,359.181 94.865,360.698 96.510 M56.730 97.129 C 55.140 98.339,53.838 99.417,53.838 99.524 C 53.838 99.632,55.184 98.707,56.830 97.469 C 59.428 95.513,60.133 94.892,59.721 94.923 C 59.666 94.927,58.320 95.920,56.730 97.129 M257.670 98.604 C 259.941 102.015,261.423 103.977,260.605 102.493 C 259.855 101.129,255.597 94.915,255.413 94.915 C 255.303 94.915,256.319 96.575,257.670 98.604 M229.711 101.779 C 229.711 101.868,231.191 103.267,233.001 104.887 C 234.811 106.508,235.842 107.331,235.294 106.718 C 234.192 105.485,229.711 101.521,229.711 101.779 M46.248 105.982 L 44.068 108.275 46.361 106.095 C 47.622 104.896,48.654 103.865,48.654 103.802 C 48.654 103.506,48.273 103.852,46.248 105.982 M370.530 108.275 C 372.096 110.359,373.467 112.064,373.577 112.064 C 373.687 112.064,373.604 111.839,373.394 111.565 C 373.183 111.291,371.897 109.586,370.535 107.777 C 369.174 105.967,367.975 104.487,367.871 104.487 C 367.767 104.487,368.963 106.191,370.530 108.275 M326.221 107.131 C 326.221 107.342,326.592 109.211,327.046 111.285 C 327.500 113.358,328.214 117.119,328.633 119.641 C 329.137 122.680,329.323 123.353,329.184 121.635 C 328.872 117.799,326.221 104.819,326.221 107.131 M359.341 107.511 C 359.390 108.459,361.652 118.159,361.681 117.549 C 361.724 116.671,359.824 107.647,359.536 107.359 C 359.418 107.241,359.331 107.310,359.341 107.511 M265.005 110.867 C 265.345 111.525,265.713 112.064,265.823 112.064 C 265.933 112.064,265.744 111.525,265.404 110.867 C 265.064 110.209,264.695 109.671,264.586 109.671 C 264.476 109.671,264.665 110.209,265.005 110.867 M40.453 111.366 L 39.282 112.662 40.578 111.491 C 41.291 110.846,41.874 110.263,41.874 110.195 C 41.874 109.886,41.545 110.158,40.453 111.366 M242.273 114.058 C 243.353 115.155,244.327 116.052,244.437 116.052 C 244.546 116.052,243.752 115.155,242.672 114.058 C 241.592 112.961,240.618 112.064,240.509 112.064 C 240.399 112.064,241.193 112.961,242.273 114.058 M37.098 115.045 C 35.912 116.246,35.021 117.284,35.118 117.353 C 35.215 117.421,36.265 116.438,37.451 115.169 C 40.185 112.244,39.947 112.160,37.098 115.045 M266.838 114.257 C 266.838 114.477,267.449 115.823,268.195 117.248 C 268.942 118.674,269.553 119.661,269.553 119.442 C 269.553 119.222,268.942 117.876,268.195 116.451 C 267.449 115.025,266.838 114.038,266.838 114.257 M377.355 118.146 C 377.673 118.639,378.689 120.344,379.612 121.934 C 380.536 123.524,381.388 124.826,381.506 124.826 C 381.624 124.826,381.373 124.242,380.949 123.529 C 380.525 122.817,379.511 121.112,378.695 119.741 C 377.878 118.370,377.113 117.248,376.994 117.248 C 376.875 117.248,377.038 117.652,377.355 118.146 M168.984 118.334 C 169.692 118.422,170.948 118.423,171.776 118.337 C 172.603 118.251,172.024 118.178,170.489 118.177 C 168.953 118.175,168.276 118.246,168.984 118.334 M180.549 118.334 C 181.257 118.422,182.514 118.423,183.341 118.337 C 184.168 118.251,183.589 118.178,182.054 118.177 C 180.518 118.175,179.841 118.246,180.549 118.334 M163.210 118.720 C 163.594 118.820,164.222 118.820,164.606 118.720 C 164.990 118.619,164.676 118.537,163.908 118.537 C 163.141 118.537,162.827 118.619,163.210 118.720 M249.897 123.131 C 252.392 126.377,254.439 128.771,253.391 127.218 C 252.352 125.677,247.591 119.641,247.414 119.641 C 247.305 119.641,248.422 121.211,249.897 123.131 M32.036 120.937 C 31.338 121.715,26.970 127.491,25.777 129.212 C 24.389 131.216,26.739 128.380,29.661 124.526 C 32.991 120.134,33.650 119.138,32.036 120.937 M139.067 122.908 C 136.700 123.579,134.836 124.201,134.924 124.289 C 135.083 124.449,144.014 122.071,144.334 121.784 C 144.744 121.416,143.051 121.778,139.067 122.908 M209.970 122.261 C 211.067 122.566,212.144 122.801,212.363 122.782 C 213.038 122.724,209.623 121.696,208.774 121.701 C 208.335 121.704,208.873 121.956,209.970 122.261 M215.155 123.634 C 216.471 124.064,217.727 124.406,217.946 124.393 C 218.586 124.357,215.657 123.354,214.143 123.091 C 213.383 122.959,213.838 123.203,215.155 123.634 M362.605 124.826 C 362.605 125.593,362.687 125.907,362.787 125.523 C 362.888 125.140,362.888 124.511,362.787 124.128 C 362.687 123.744,362.605 124.058,362.605 124.826 M132.203 125.011 C 130.663 125.716,131.380 125.726,133.200 125.025 C 133.968 124.729,134.327 124.482,133.998 124.475 C 133.669 124.468,132.861 124.709,132.203 125.011 M329.520 126.022 C 329.520 127.009,329.598 127.413,329.693 126.919 C 329.788 126.426,329.788 125.618,329.693 125.125 C 329.598 124.631,329.520 125.035,329.520 126.022 M363.020 128.814 C 363.020 129.801,363.098 130.204,363.193 129.711 C 363.288 129.217,363.288 128.410,363.193 127.916 C 363.098 127.423,363.020 127.827,363.020 128.814 M254.835 129.811 C 255.515 130.798,256.160 131.605,256.270 131.605 C 256.379 131.605,255.913 130.798,255.234 129.811 C 254.555 128.824,253.910 128.016,253.800 128.016 C 253.690 128.016,254.156 128.824,254.835 129.811 M329.930 130.010 C 329.930 131.216,330.005 131.710,330.096 131.107 C 330.188 130.503,330.188 129.516,330.096 128.913 C 330.005 128.310,329.930 128.804,329.930 130.010 M116.152 131.424 C 114.123 132.385,112.463 133.261,112.463 133.372 C 112.463 133.570,120.026 130.157,120.387 129.796 C 120.875 129.308,119.520 129.829,116.152 131.424 M233.333 130.164 C 233.739 130.539,241.675 134.383,241.675 134.205 C 241.675 133.984,233.874 130.010,233.440 130.010 C 233.290 130.010,233.242 130.079,233.333 130.164 M24.080 131.705 C 22.708 134.034,22.618 134.233,23.317 133.400 C 24.127 132.435,24.825 131.206,24.564 131.206 C 24.460 131.206,24.242 131.431,24.080 131.705 M384.879 131.649 C 384.861 131.782,385.553 133.397,386.418 135.238 C 387.283 137.078,387.996 138.405,388.001 138.185 C 388.014 137.730,384.931 131.277,384.879 131.649 M363.449 135.194 C 363.449 137.059,363.518 137.822,363.602 136.889 C 363.686 135.957,363.686 134.432,363.602 133.500 C 363.518 132.567,363.449 133.330,363.449 135.194 M149.950 133.032 C 148.955 133.632,148.955 133.632,149.900 133.374 C 151.041 133.062,150.909 133.342,148.568 136.191 C 147.666 137.288,146.675 138.544,146.365 138.983 C 145.366 140.397,146.611 139.055,148.773 136.391 C 149.930 134.965,151.144 133.485,151.472 133.101 C 152.247 132.193,151.406 132.155,149.950 133.032 M274.837 133.998 C 274.837 134.327,275.169 135.494,275.573 136.590 C 275.978 137.687,276.309 138.315,276.309 137.986 C 276.309 137.657,275.978 136.491,275.573 135.394 C 275.169 134.297,274.837 133.669,274.837 133.998 M330.369 140.179 C 330.369 143.470,330.431 144.762,330.506 143.053 C 330.581 141.343,330.581 138.651,330.505 137.071 C 330.430 135.490,330.368 136.889,330.369 140.179 M259.147 136.391 C 260.941 139.652,262.102 141.575,262.274 141.575 C 262.509 141.575,260.057 137.237,259.100 135.958 C 258.483 135.135,258.490 135.198,259.147 136.391 M21.416 135.892 C 21.325 136.057,20.747 137.089,20.131 138.185 C 19.515 139.282,19.196 140.000,19.423 139.781 C 20.000 139.221,22.056 135.593,21.796 135.593 C 21.679 135.593,21.508 135.728,21.416 135.892 M139.083 138.605 C 137.383 139.596,135.992 140.504,135.992 140.624 C 135.992 140.744,136.575 140.493,137.288 140.065 C 138.001 139.637,139.437 138.798,140.479 138.200 C 141.520 137.602,142.373 137.040,142.373 136.951 C 142.373 136.692,142.320 136.718,139.083 138.605 M100.798 139.982 C 99.098 141.072,97.707 142.052,97.707 142.160 C 97.707 142.268,99.143 141.445,100.897 140.331 C 103.617 138.604,104.470 137.959,103.988 137.993 C 103.933 137.997,102.498 138.892,100.798 139.982 M249.252 138.502 C 249.252 138.593,250.508 139.502,252.044 140.523 C 253.579 141.544,254.835 142.295,254.835 142.192 C 254.835 142.088,253.804 141.311,252.542 140.463 C 249.749 138.587,249.252 138.290,249.252 138.502 M276.620 139.980 C 276.759 140.748,277.030 141.735,277.222 142.173 C 277.462 142.721,277.492 142.533,277.318 141.575 C 277.179 140.808,276.908 139.821,276.716 139.382 C 276.476 138.834,276.446 139.022,276.620 139.980 M388.081 138.983 C 388.089 139.202,388.440 140.100,388.862 140.977 C 389.284 141.854,389.518 142.124,389.381 141.575 C 389.100 140.446,388.061 138.373,388.081 138.983 M18.146 141.575 C 17.805 142.233,17.617 142.772,17.726 142.772 C 17.836 142.772,18.204 142.233,18.544 141.575 C 18.885 140.917,19.073 140.379,18.964 140.379 C 18.854 140.379,18.486 140.917,18.146 141.575 M363.452 147.358 C 363.450 149.332,363.518 150.190,363.601 149.264 C 363.685 148.339,363.686 146.724,363.604 145.675 C 363.521 144.627,363.453 145.384,363.452 147.358 M141.102 146.461 C 138.579 150.278,138.292 150.748,138.482 150.748 C 138.648 150.748,139.740 149.175,142.151 145.464 C 142.543 144.860,142.778 144.367,142.675 144.367 C 142.571 144.367,141.863 145.309,141.102 146.461 M88.567 148.754 C 86.953 150.070,85.754 151.147,85.904 151.147 C 86.054 151.147,87.290 150.229,88.652 149.108 C 91.560 146.712,91.949 146.361,91.694 146.361 C 91.589 146.361,90.182 147.438,88.567 148.754 M123.230 149.190 C 121.805 150.298,120.369 151.487,120.040 151.833 C 119.711 152.178,120.922 151.349,122.732 149.991 C 125.547 147.878,126.393 147.129,125.922 147.166 C 125.867 147.171,124.656 148.081,123.230 149.190 M14.229 149.370 C 13.292 151.335,13.424 151.669,14.403 149.813 C 14.848 148.970,15.142 148.209,15.055 148.123 C 14.969 148.037,14.597 148.598,14.229 149.370 M329.631 151.964 C 329.475 153.964,329.431 155.686,329.534 155.789 C 329.638 155.892,329.852 154.342,330.010 152.343 C 330.168 150.344,330.212 148.623,330.107 148.518 C 330.002 148.413,329.788 149.964,329.631 151.964 M265.547 150.249 C 266.309 150.962,267.037 151.431,267.165 151.291 C 267.293 151.152,267.172 150.957,266.897 150.858 C 266.621 150.760,266.514 150.488,266.659 150.253 C 266.821 149.992,266.733 149.944,266.433 150.130 C 266.154 150.302,265.559 150.114,265.052 149.693 C 264.562 149.286,264.785 149.536,265.547 150.249 M12.428 153.357 C 11.760 154.824,11.887 155.136,12.609 153.803 C 12.947 153.181,13.148 152.597,13.057 152.505 C 12.966 152.414,12.683 152.797,12.428 153.357 M363.020 153.938 C 363.020 154.925,363.098 155.329,363.193 154.835 C 363.288 154.342,363.288 153.534,363.193 153.041 C 363.098 152.547,363.020 152.951,363.020 153.938 M114.840 156.363 L 111.466 159.585 114.955 156.477 C 118.172 153.613,118.650 153.141,118.330 153.141 C 118.267 153.141,116.696 154.591,114.840 156.363 M80.415 155.770 C 79.130 156.981,78.153 158.047,78.245 158.138 C 78.336 158.230,79.471 157.232,80.768 155.922 C 83.721 152.937,83.515 152.849,80.415 155.770 M11.000 156.763 C 10.635 157.677,10.410 158.499,10.502 158.591 C 10.593 158.682,10.967 158.009,11.333 157.095 C 11.698 156.182,11.923 155.359,11.831 155.268 C 11.740 155.176,11.366 155.849,11.000 156.763 M329.114 157.727 C 329.118 158.604,329.200 158.916,329.295 158.420 C 329.390 157.924,329.387 157.206,329.287 156.825 C 329.187 156.444,329.109 156.849,329.114 157.727 M362.605 157.527 C 362.605 158.295,362.687 158.609,362.787 158.225 C 362.888 157.841,362.888 157.213,362.787 156.830 C 362.687 156.446,362.605 156.760,362.605 157.527 M132.382 161.557 C 131.270 163.774,130.423 165.651,130.501 165.728 C 130.578 165.806,131.575 163.993,132.716 161.699 C 133.857 159.404,134.704 157.527,134.597 157.527 C 134.491 157.527,133.494 159.341,132.382 161.557 M394.485 158.724 C 394.505 159.760,395.133 161.462,395.147 160.518 C 395.153 160.080,395.004 159.362,394.816 158.923 C 394.606 158.435,394.477 158.357,394.485 158.724 M9.616 160.363 C 9.370 161.068,9.239 161.715,9.324 161.800 C 9.409 161.885,9.680 161.378,9.926 160.674 C 10.171 159.969,10.303 159.322,10.217 159.237 C 10.132 159.152,9.861 159.659,9.616 160.363 M328.079 163.723 C 327.684 166.060,327.435 168.046,327.527 168.138 C 327.759 168.370,329.123 160.451,328.944 159.913 C 328.864 159.671,328.474 161.386,328.079 163.723 M72.961 163.410 C 70.381 166.113,67.840 169.054,69.430 167.498 C 71.296 165.670,75.503 161.117,75.325 161.117 C 75.228 161.117,74.165 162.149,72.961 163.410 M395.268 161.715 C 395.258 161.934,395.767 165.075,396.399 168.694 C 397.031 172.313,397.561 174.804,397.578 174.229 C 397.610 173.069,396.167 164.388,395.629 162.512 C 395.441 161.854,395.278 161.496,395.268 161.715 M361.757 162.712 C 361.729 163.260,361.257 165.862,360.707 168.495 C 359.399 174.758,359.192 176.118,359.917 173.679 C 360.831 170.606,362.194 163.196,361.990 162.414 C 361.865 161.936,361.791 162.030,361.757 162.712 M106.264 164.806 C 102.733 168.492,101.116 170.289,101.330 170.289 C 101.435 170.289,103.188 168.495,105.225 166.301 C 107.262 164.108,108.866 162.313,108.790 162.313 C 108.713 162.313,107.577 163.435,106.264 164.806 M280.850 164.307 C 280.850 165.075,280.932 165.389,281.033 165.005 C 281.133 164.621,281.133 163.993,281.033 163.609 C 280.932 163.225,280.850 163.539,280.850 164.307 M281.322 176.271 C 281.322 180.329,281.381 181.989,281.454 179.960 C 281.526 177.931,281.526 174.611,281.454 172.582 C 281.381 170.553,281.322 172.213,281.322 176.271 M65.297 172.383 C 63.424 174.722,61.535 177.396,62.268 176.670 C 63.141 175.805,67.046 170.688,66.833 170.688 C 66.734 170.688,66.043 171.451,65.297 172.383 M98.036 174.377 C 96.085 176.806,93.619 180.259,93.836 180.259 C 93.937 180.259,95.302 178.554,96.868 176.471 C 99.777 172.601,100.490 171.323,98.036 174.377 M397.721 177.268 C 397.724 178.365,397.802 178.766,397.893 178.160 C 397.985 177.554,397.983 176.657,397.888 176.166 C 397.793 175.675,397.718 176.171,397.721 177.268 M358.752 176.898 C 358.606 177.482,358.563 178.037,358.657 178.131 C 358.751 178.225,358.947 177.824,359.094 177.240 C 359.241 176.655,359.284 176.100,359.190 176.006 C 359.096 175.912,358.899 176.313,358.752 176.898 M4.187 179.462 C 4.034 180.369,3.992 181.194,4.095 181.296 C 4.197 181.399,4.400 180.735,4.546 179.821 C 4.693 178.907,4.734 178.081,4.639 177.986 C 4.544 177.891,4.341 178.555,4.187 179.462 M398.134 181.854 C 398.134 183.280,398.206 183.863,398.294 183.151 C 398.383 182.438,398.383 181.271,398.294 180.558 C 398.206 179.845,398.134 180.429,398.134 181.854 M124.028 182.652 C 123.440 184.834,123.752 185.146,124.390 183.015 C 124.660 182.114,124.790 181.288,124.680 181.177 C 124.570 181.067,124.276 181.730,124.028 182.652 M3.077 185.725 C 2.701 187.963,2.410 190.206,2.430 190.710 C 2.451 191.213,2.807 189.651,3.222 187.238 C 3.636 184.826,3.927 182.582,3.868 182.253 C 3.809 181.924,3.453 183.486,3.077 185.725 M91.478 183.549 C 90.105 185.878,90.016 186.077,90.715 185.244 C 91.525 184.279,92.223 183.051,91.962 183.051 C 91.857 183.051,91.640 183.275,91.478 183.549 M55.997 185.942 C 54.147 189.040,54.151 189.033,54.375 189.033 C 54.477 189.033,55.056 188.180,55.661 187.139 C 56.267 186.097,57.022 184.840,57.340 184.347 C 57.658 183.853,57.821 183.450,57.702 183.450 C 57.583 183.450,56.816 184.571,55.997 185.942 M122.865 186.873 C 122.607 187.895,122.472 188.806,122.563 188.897 C 122.654 188.989,122.940 188.227,123.197 187.205 C 123.454 186.183,123.590 185.272,123.499 185.180 C 123.407 185.089,123.122 185.851,122.865 186.873 M88.414 188.534 C 86.705 191.385,86.062 192.622,86.289 192.622 C 86.385 192.622,87.046 191.590,87.757 190.329 C 88.468 189.068,89.313 187.632,89.635 187.139 C 89.958 186.645,90.124 186.241,90.005 186.241 C 89.886 186.241,89.170 187.273,88.414 188.534 M280.850 187.836 C 280.850 188.604,280.932 188.918,281.033 188.534 C 281.133 188.151,281.133 187.522,281.033 187.139 C 280.932 186.755,280.850 187.069,280.850 187.836 M398.554 190.828 C 398.555 193.240,398.621 194.176,398.700 192.907 C 398.779 191.637,398.779 189.663,398.698 188.520 C 398.618 187.376,398.553 188.415,398.554 190.828 M319.899 192.334 C 317.775 197.452,317.603 197.959,318.606 196.158 C 319.582 194.406,321.922 188.588,321.728 188.395 C 321.653 188.319,320.829 190.092,319.899 192.334 M53.041 191.027 C 52.593 191.904,52.317 192.622,52.426 192.622 C 52.536 192.622,52.992 191.904,53.440 191.027 C 53.887 190.150,54.164 189.432,54.054 189.432 C 53.944 189.432,53.488 190.150,53.041 191.027 M2.108 193.619 C 2.111 194.716,2.189 195.117,2.280 194.511 C 2.372 193.905,2.369 193.007,2.275 192.517 C 2.180 192.026,2.105 192.522,2.108 193.619 M352.431 195.302 C 351.622 197.199,351.023 198.813,351.100 198.890 C 351.177 198.967,351.905 197.482,352.718 195.589 C 353.531 193.697,354.130 192.082,354.048 192.001 C 353.967 191.920,353.239 193.405,352.431 195.302 M1.723 198.604 C 1.723 200.030,1.795 200.613,1.884 199.900 C 1.972 199.187,1.972 198.021,1.884 197.308 C 1.795 196.595,1.723 197.178,1.723 198.604 M48.872 199.307 C 47.608 201.915,45.850 206.302,46.006 206.458 C 46.089 206.541,46.569 205.571,47.073 204.301 C 47.577 203.032,48.420 201.124,48.946 200.060 C 49.473 198.996,49.834 198.056,49.749 197.971 C 49.664 197.886,49.270 198.487,48.872 199.307 M316.921 199.221 C 315.984 201.186,316.116 201.520,317.095 199.663 C 317.540 198.820,317.834 198.060,317.747 197.973 C 317.661 197.887,317.289 198.449,316.921 199.221 M398.130 200.000 C 398.132 201.316,398.206 201.806,398.295 201.090 C 398.384 200.373,398.382 199.296,398.291 198.697 C 398.200 198.097,398.127 198.684,398.130 200.000 M80.399 204.427 C 79.601 206.334,79.013 207.959,79.093 208.039 C 79.173 208.119,79.890 206.623,80.686 204.714 C 81.482 202.805,82.070 201.179,81.992 201.101 C 81.914 201.023,81.197 202.520,80.399 204.427 M1.249 207.611 C 1.277 211.102,1.424 215.304,1.574 216.949 C 1.725 218.594,1.766 215.813,1.667 210.768 C 1.567 205.723,1.421 201.520,1.341 201.429 C 1.262 201.338,1.220 204.119,1.249 207.611 M397.721 204.387 C 397.724 205.484,397.802 205.885,397.893 205.279 C 397.985 204.672,397.983 203.775,397.888 203.285 C 397.793 202.794,397.718 203.290,397.721 204.387 M396.688 211.395 C 396.300 214.068,396.058 216.331,396.150 216.423 C 396.386 216.659,397.733 207.556,397.546 206.994 C 397.461 206.741,397.075 208.721,396.688 211.395 M310.418 211.251 C 309.130 213.382,307.932 215.356,307.757 215.638 C 307.581 215.921,307.526 216.152,307.633 216.152 C 307.821 216.152,311.632 210.123,312.613 208.275 C 313.808 206.023,312.539 207.744,310.418 211.251 M345.563 209.372 C 345.223 210.030,345.034 210.568,345.144 210.568 C 345.254 210.568,345.622 210.030,345.962 209.372 C 346.302 208.714,346.491 208.175,346.381 208.175 C 346.272 208.175,345.904 208.714,345.563 209.372 M78.210 209.815 C 77.964 210.520,77.833 211.166,77.918 211.252 C 78.003 211.337,78.274 210.830,78.520 210.125 C 78.766 209.420,78.897 208.774,78.812 208.689 C 78.726 208.603,78.456 209.110,78.210 209.815 M118.936 209.771 C 118.936 210.538,119.018 210.852,119.118 210.469 C 119.219 210.085,119.219 209.457,119.118 209.073 C 119.018 208.689,118.936 209.003,118.936 209.771 M275.420 216.027 C 274.577 218.837,273.808 221.406,273.710 221.735 C 273.561 222.239,273.595 222.236,273.929 221.718 C 274.466 220.881,277.223 211.729,277.073 211.278 C 277.007 211.080,276.263 213.217,275.420 216.027 M344.089 211.864 C 343.777 212.358,343.118 213.480,342.625 214.357 C 341.570 216.234,342.722 214.773,344.090 212.497 C 345.062 210.881,345.061 210.331,344.089 211.864 M118.564 215.753 C 118.564 216.959,118.639 217.453,118.730 216.849 C 118.822 216.246,118.822 215.259,118.730 214.656 C 118.639 214.053,118.564 214.546,118.564 215.753 M395.268 219.395 C 394.992 220.728,394.842 221.894,394.934 221.986 C 395.026 222.078,395.332 221.068,395.613 219.741 C 395.895 218.414,396.045 217.248,395.947 217.150 C 395.848 217.052,395.543 218.062,395.268 219.395 M2.103 222.134 C 2.103 223.121,2.180 223.524,2.275 223.031 C 2.371 222.537,2.371 221.730,2.275 221.236 C 2.180 220.743,2.103 221.147,2.103 222.134 M301.930 223.829 C 300.563 225.638,300.083 226.401,300.864 225.523 C 302.421 223.773,304.829 220.538,304.576 220.538 C 304.488 220.538,303.298 222.019,301.930 223.829 M335.973 224.028 C 334.704 225.728,334.036 226.793,334.490 226.395 C 335.347 225.642,338.769 220.937,338.459 220.937 C 338.362 220.937,337.243 222.328,335.973 224.028 M39.537 226.793 C 38.813 229.894,37.968 235.173,38.527 233.101 C 39.188 230.650,40.644 223.562,40.512 223.430 C 40.428 223.346,39.989 224.859,39.537 226.793 M2.617 226.321 C 2.854 229.197,4.414 237.793,4.655 237.551 C 4.749 237.457,4.455 235.341,4.001 232.848 C 3.546 230.355,3.005 227.328,2.797 226.122 L 2.420 223.928 2.617 226.321 M118.568 229.511 C 118.570 230.828,118.645 231.318,118.734 230.601 C 118.822 229.884,118.821 228.807,118.730 228.208 C 118.639 227.609,118.566 228.195,118.568 229.511 M289.749 237.423 C 285.592 241.626,283.438 243.956,284.964 242.601 C 288.247 239.685,298.033 229.640,297.489 229.746 C 297.389 229.765,293.907 233.220,289.749 237.423 M322.863 239.020 C 318.713 243.222,316.559 245.551,318.077 244.196 C 321.372 241.256,331.130 231.232,330.589 231.343 C 330.490 231.364,327.013 234.819,322.863 239.020 M71.632 233.587 C 70.929 237.648,70.209 243.198,70.246 244.267 C 70.269 244.925,70.444 244.297,70.634 242.871 C 70.824 241.446,71.265 238.513,71.612 236.355 C 71.960 234.197,72.166 232.352,72.069 232.255 C 71.972 232.158,71.776 232.758,71.632 233.587 M266.885 237.505 C 265.524 240.237,264.498 242.473,264.605 242.473 C 264.869 242.473,269.676 232.853,269.500 232.677 C 269.423 232.600,268.246 234.773,266.885 237.505 M37.580 237.687 C 37.580 238.455,37.662 238.769,37.762 238.385 C 37.863 238.001,37.863 237.373,37.762 236.989 C 37.662 236.605,37.580 236.919,37.580 237.687 M37.189 240.678 C 37.194 241.555,37.275 241.867,37.371 241.371 C 37.466 240.875,37.463 240.157,37.363 239.776 C 37.263 239.395,37.185 239.801,37.189 240.678 M387.537 244.167 C 386.511 246.614,385.734 248.679,385.811 248.755 C 385.887 248.832,386.793 246.896,387.824 244.454 C 388.855 242.012,389.632 239.948,389.551 239.866 C 389.470 239.785,388.564 241.721,387.537 244.167 M36.791 243.868 C 36.795 244.746,36.877 245.058,36.972 244.562 C 37.067 244.066,37.064 243.348,36.964 242.966 C 36.864 242.585,36.786 242.991,36.791 243.868 M69.914 248.255 C 69.916 249.571,69.991 250.062,70.080 249.345 C 70.168 248.628,70.167 247.551,70.076 246.952 C 69.985 246.353,69.912 246.939,69.914 248.255 M36.419 249.252 C 36.419 250.678,36.491 251.261,36.580 250.548 C 36.668 249.835,36.668 248.669,36.580 247.956 C 36.491 247.243,36.419 247.827,36.419 249.252 M312.246 248.778 C 311.030 249.807,309.415 251.153,308.657 251.771 C 307.435 252.765,307.487 252.751,309.107 251.650 C 310.914 250.423,315.043 246.889,314.656 246.902 C 314.546 246.905,313.462 247.750,312.246 248.778 M132.802 247.608 C 132.802 247.854,132.992 248.056,133.224 248.056 C 133.456 248.056,133.539 248.229,133.409 248.441 C 133.278 248.652,133.618 249.684,134.164 250.734 C 134.710 251.783,135.166 252.500,135.176 252.327 C 135.186 252.154,134.823 251.284,134.369 250.394 C 132.985 247.682,133.580 247.944,138.883 252.381 C 139.267 252.702,139.581 252.868,139.581 252.749 C 139.581 252.630,138.280 251.495,136.690 250.228 C 132.589 246.959,132.802 247.103,132.802 247.608 M258.284 252.443 C 256.824 254.636,255.704 256.431,255.795 256.431 C 256.003 256.431,259.159 251.967,260.378 249.950 C 262.135 247.042,260.904 248.507,258.284 252.443 M274.776 250.498 C 271.576 252.964,270.744 253.817,273.254 252.058 C 275.278 250.640,277.889 248.483,277.567 248.494 C 277.458 248.498,276.201 249.400,274.776 250.498 M69.559 258.624 C 69.559 263.011,69.617 264.860,69.689 262.733 C 69.760 260.606,69.761 257.017,69.690 254.757 C 69.618 252.497,69.560 254.237,69.559 258.624 M9.571 254.562 C 9.571 255.064,12.812 262.944,13.602 264.362 C 14.621 266.193,14.451 265.706,11.939 259.621 C 9.963 254.834,9.571 253.998,9.571 254.562 M36.020 257.228 C 36.020 258.654,36.092 259.237,36.181 258.524 C 36.269 257.812,36.269 256.645,36.181 255.932 C 36.092 255.219,36.020 255.803,36.020 257.228 M122.464 256.299 C 122.415 257.023,125.175 266.397,125.655 267.138 C 126.025 267.708,126.049 267.693,125.836 267.023 C 125.701 266.598,124.965 264.086,124.202 261.440 C 122.640 256.031,122.509 255.642,122.464 256.299 M299.633 257.955 C 297.039 259.647,295.203 261.062,296.710 260.207 C 298.496 259.194,302.692 256.407,302.692 256.234 C 302.692 255.951,302.793 255.894,299.633 257.955 M146.056 257.318 C 147.240 258.325,149.551 259.768,149.551 259.501 C 149.551 259.410,148.519 258.673,147.258 257.863 C 145.997 257.054,145.456 256.809,146.056 257.318 M262.812 258.482 C 259.959 260.179,257.589 261.840,259.023 261.138 C 260.197 260.563,266.401 256.750,266.401 256.603 C 266.401 256.344,266.446 256.320,262.812 258.482 M138.860 259.555 C 139.586 260.835,140.504 262.316,140.900 262.845 C 141.517 263.668,141.510 263.606,140.853 262.413 C 139.059 259.152,137.898 257.228,137.726 257.228 C 137.624 257.228,138.135 258.275,138.860 259.555 M380.658 258.425 C 380.318 259.083,380.129 259.621,380.239 259.621 C 380.348 259.621,380.717 259.083,381.057 258.425 C 381.397 257.767,381.586 257.228,381.476 257.228 C 381.366 257.228,380.998 257.767,380.658 258.425 M250.080 263.688 C 248.980 265.047,248.139 266.218,248.210 266.290 C 248.501 266.580,249.630 265.891,249.420 265.552 C 249.296 265.351,249.941 264.293,250.855 263.201 C 251.769 262.109,252.419 261.216,252.299 261.216 C 252.178 261.216,251.180 262.329,250.080 263.688 M378.218 262.512 C 376.845 264.841,376.756 265.040,377.455 264.207 C 378.265 263.242,378.963 262.014,378.702 262.014 C 378.597 262.014,378.379 262.238,378.218 262.512 M36.419 265.603 C 36.419 267.029,36.491 267.612,36.580 266.899 C 36.668 266.186,36.668 265.020,36.580 264.307 C 36.491 263.594,36.419 264.177,36.419 265.603 M252.841 264.008 C 252.074 264.428,251.625 264.772,251.844 264.772 C 252.064 264.772,252.871 264.428,253.639 264.008 C 254.407 263.588,254.855 263.244,254.636 263.244 C 254.417 263.244,253.609 263.588,252.841 264.008 M158.325 264.605 C 158.325 264.870,164.754 268.080,164.932 267.903 C 165.010 267.825,163.556 267.007,161.700 266.086 C 159.844 265.166,158.325 264.499,158.325 264.605 M285.543 266.002 C 283.898 266.858,282.691 267.567,282.861 267.577 C 283.285 267.605,288.734 264.843,288.734 264.601 C 288.734 264.332,288.865 264.274,285.543 266.002 M69.910 268.794 C 69.910 270.000,69.985 270.494,70.076 269.890 C 70.168 269.287,70.168 268.300,70.076 267.697 C 69.985 267.094,69.910 267.587,69.910 268.794 M145.165 269.591 C 145.633 270.249,146.106 270.788,146.216 270.788 C 146.325 270.788,146.032 270.249,145.563 269.591 C 145.095 268.933,144.622 268.395,144.512 268.395 C 144.402 268.395,144.696 268.933,145.165 269.591 M36.799 270.788 C 36.799 271.775,36.876 272.178,36.971 271.685 C 37.066 271.191,37.066 270.384,36.971 269.890 C 36.876 269.397,36.799 269.801,36.799 270.788 M147.581 272.955 C 148.280 273.928,149.378 275.318,150.022 276.046 C 150.666 276.773,150.173 275.977,148.928 274.277 C 147.682 272.577,146.584 271.186,146.487 271.186 C 146.390 271.186,146.883 271.982,147.581 272.955 M370.126 274.477 C 368.759 276.286,368.279 277.049,369.059 276.171 C 370.616 274.421,373.025 271.186,372.771 271.186 C 372.683 271.186,371.493 272.667,370.126 274.477 M70.253 272.713 C 70.178 274.285,71.625 284.026,72.190 285.743 C 72.579 286.925,72.581 286.923,72.366 285.543 C 71.454 279.673,70.605 273.950,70.474 272.782 L 70.317 271.386 70.253 272.713 M37.189 274.177 C 37.194 275.055,37.275 275.367,37.371 274.871 C 37.466 274.375,37.463 273.657,37.363 273.276 C 37.263 272.894,37.185 273.300,37.189 274.177 M178.631 273.402 C 180.358 274.204,188.742 276.626,190.839 276.929 C 192.040 277.103,191.893 277.013,190.229 276.554 C 189.023 276.221,185.956 275.331,183.414 274.577 C 180.873 273.822,178.450 273.107,178.031 272.987 C 177.611 272.868,177.882 273.055,178.631 273.402 M18.382 274.078 C 19.420 276.087,22.800 281.555,23.004 281.555 C 23.124 281.555,22.959 281.152,22.638 280.658 C 22.317 280.165,21.195 278.280,20.146 276.471 C 18.400 273.461,17.272 271.931,18.382 274.078 M263.717 274.492 C 261.473 275.169,259.711 275.796,259.800 275.885 C 259.991 276.076,267.119 274.039,267.996 273.543 C 268.990 272.981,267.995 273.202,263.717 274.492 M37.527 276.570 C 37.441 278.436,40.149 291.788,40.535 291.403 C 40.632 291.305,40.423 290.078,40.071 288.675 C 39.718 287.271,39.010 283.794,38.497 280.948 C 37.983 278.102,37.547 276.132,37.527 276.570 M257.228 276.371 C 256.427 276.628,256.388 276.692,257.029 276.702 C 257.468 276.708,258.185 276.559,258.624 276.371 C 259.640 275.934,258.592 275.934,257.228 276.371 M130.043 278.564 C 130.043 278.784,130.387 279.591,130.808 280.359 C 131.228 281.127,131.572 281.575,131.572 281.356 C 131.572 281.137,131.228 280.329,130.808 279.561 C 130.387 278.794,130.043 278.345,130.043 278.564 M155.447 282.652 C 156.761 284.133,158.254 285.703,158.764 286.142 C 159.274 286.580,158.278 285.369,156.551 283.450 C 154.823 281.530,153.331 279.960,153.234 279.960 C 153.138 279.960,154.133 281.171,155.447 282.652 M211.864 280.235 C 212.248 280.335,212.876 280.335,213.260 280.235 C 213.644 280.135,213.330 280.053,212.562 280.053 C 211.795 280.053,211.481 280.135,211.864 280.235 M234.003 280.242 C 234.499 280.338,235.217 280.334,235.598 280.234 C 235.979 280.134,235.573 280.056,234.696 280.061 C 233.819 280.065,233.507 280.147,234.003 280.242 M220.458 280.656 C 222.278 280.730,225.149 280.730,226.838 280.655 C 228.528 280.580,227.039 280.520,223.529 280.520 C 220.020 280.521,218.638 280.582,220.458 280.656 M361.899 284.247 C 359.957 286.386,358.959 287.597,359.681 286.939 C 361.181 285.571,365.875 280.359,365.607 280.359 C 365.510 280.359,363.841 282.109,361.899 284.247 M131.970 282.863 C 132.530 284.335,133.580 286.341,133.790 286.341 C 133.997 286.341,132.205 282.421,131.825 282.041 C 131.677 281.893,131.742 282.262,131.970 282.863 M26.606 287.238 C 26.817 287.512,28.103 289.217,29.465 291.027 C 30.826 292.836,32.025 294.317,32.129 294.317 C 32.233 294.317,31.037 292.612,29.470 290.528 C 27.904 288.445,26.533 286.740,26.423 286.740 C 26.313 286.740,26.396 286.964,26.606 287.238 M353.141 292.996 C 350.232 295.773,350.081 295.967,352.343 294.015 C 353.878 292.690,355.570 291.139,356.101 290.569 C 357.991 288.542,356.679 289.617,353.141 292.996 M165.105 292.522 C 166.296 293.729,167.361 294.716,167.470 294.716 C 167.580 294.716,166.695 293.729,165.503 292.522 C 164.312 291.316,163.248 290.329,163.138 290.329 C 163.028 290.329,163.913 291.316,165.105 292.522 M139.802 297.009 C 141.934 300.294,142.497 301.097,142.671 301.097 C 142.777 301.097,142.543 300.603,142.152 300.000 C 140.021 296.715,139.457 295.912,139.283 295.912 C 139.177 295.912,139.411 296.406,139.802 297.009 M36.583 299.701 C 40.764 304.481,46.261 309.730,46.261 308.941 C 46.261 308.549,46.098 308.329,45.898 308.453 C 45.698 308.576,42.971 306.029,39.838 302.793 C 36.705 299.557,35.241 298.166,36.583 299.701 M171.087 297.653 C 171.087 297.803,174.102 300.203,178.564 303.606 C 178.838 303.815,179.063 303.901,179.063 303.798 C 179.063 303.694,177.268 302.227,175.075 300.538 C 172.881 298.848,171.087 297.550,171.087 297.653 M343.370 300.948 C 339.210 304.130,338.365 304.980,341.575 302.754 C 343.942 301.113,347.345 298.326,346.959 298.345 C 346.849 298.350,345.234 299.521,343.370 300.948 M180.926 305.117 C 181.421 305.716,183.848 307.243,183.848 306.955 C 183.848 306.862,183.086 306.283,182.154 305.668 C 181.221 305.053,180.669 304.805,180.926 305.117 M44.895 305.882 C 45.041 306.431,45.328 307.149,45.531 307.478 C 45.788 307.893,45.819 307.772,45.634 307.079 C 45.487 306.530,45.201 305.813,44.998 305.484 C 44.741 305.068,44.709 305.189,44.895 305.882 M77.767 305.614 C 77.767 306.115,80.657 313.095,80.803 312.949 C 80.884 312.868,80.306 311.200,79.519 309.242 C 78.145 305.826,77.767 305.043,77.767 305.614 M147.886 308.574 C 148.315 309.177,149.412 310.479,150.323 311.466 C 151.504 312.745,151.330 312.430,149.717 310.369 C 147.509 307.545,146.329 306.390,147.886 308.574 M332.702 308.321 C 331.343 309.192,330.903 309.776,332.104 309.116 C 333.019 308.613,334.452 307.505,334.197 307.497 C 334.088 307.494,333.415 307.865,332.702 308.321 M186.141 308.527 C 187.189 309.398,191.027 311.597,191.027 311.327 C 191.027 311.226,190.174 310.647,189.133 310.042 C 188.091 309.436,186.790 308.680,186.241 308.361 L 185.244 307.782 186.141 308.527 M328.714 310.710 C 327.562 311.381,326.620 312.022,326.620 312.135 C 326.620 312.356,330.167 310.384,330.788 309.817 C 331.463 309.201,330.850 309.465,328.714 310.710 M80.991 313.659 C 80.991 313.878,81.334 314.686,81.755 315.454 C 82.175 316.221,82.519 316.670,82.519 316.451 C 82.519 316.231,82.175 315.424,81.755 314.656 C 81.334 313.888,80.991 313.440,80.991 313.659 M154.652 316.451 C 156.675 318.846,163.269 325.390,165.912 327.625 C 166.686 328.279,165.395 326.969,163.045 324.715 C 160.695 322.460,157.390 319.140,155.701 317.337 C 153.800 315.307,153.400 314.970,154.652 316.451 M320.638 315.055 C 319.870 315.475,319.422 315.819,319.641 315.819 C 319.860 315.819,320.668 315.475,321.436 315.055 C 322.203 314.635,322.652 314.291,322.433 314.291 C 322.213 314.291,321.406 314.635,320.638 315.055 M200.598 316.380 C 200.598 316.648,210.241 320.699,210.430 320.510 C 210.548 320.392,206.330 318.532,200.923 316.318 C 200.744 316.245,200.598 316.272,200.598 316.380 M312.579 318.572 C 310.230 319.581,308.376 320.473,308.458 320.555 C 308.631 320.728,317.448 317.057,317.448 316.812 C 317.448 316.519,316.895 316.719,312.579 318.572 M87.387 326.591 C 88.102 327.891,89.033 329.372,89.455 329.881 L 90.224 330.808 89.637 329.811 C 89.314 329.262,88.468 327.782,87.757 326.520 C 87.046 325.259,86.379 324.227,86.276 324.227 C 86.172 324.227,86.672 325.291,87.387 326.591 M289.930 325.823 C 289.141 326.075,289.099 326.142,289.731 326.142 C 290.169 326.142,290.977 325.998,291.525 325.823 C 292.315 325.570,292.356 325.503,291.725 325.503 C 291.286 325.503,290.479 325.647,289.930 325.823 M228.530 325.951 C 228.831 326.280,239.503 328.222,240.804 328.185 C 241.393 328.168,239.541 327.742,236.690 327.239 C 233.838 326.736,230.788 326.188,229.910 326.021 C 229.033 325.854,228.412 325.822,228.530 325.951 M282.353 327.234 C 279.611 327.725,277.754 328.147,278.226 328.171 C 279.264 328.225,288.399 326.689,288.673 326.415 C 288.979 326.109,287.697 326.275,282.353 327.234 M242.776 328.497 C 243.272 328.593,243.990 328.589,244.372 328.489 C 244.753 328.390,244.347 328.311,243.470 328.316 C 242.592 328.320,242.280 328.402,242.776 328.497 M275.079 328.497 C 275.576 328.593,276.293 328.589,276.675 328.489 C 277.056 328.390,276.650 328.311,275.773 328.316 C 274.895 328.320,274.583 328.402,275.079 328.497 M245.962 328.896 C 246.456 328.991,247.263 328.991,247.757 328.896 C 248.250 328.801,247.846 328.723,246.859 328.723 C 245.872 328.723,245.469 328.801,245.962 328.896 M271.486 328.896 C 271.979 328.991,272.787 328.991,273.280 328.896 C 273.774 328.801,273.370 328.723,272.383 328.723 C 271.396 328.723,270.992 328.801,271.486 328.896 M251.556 329.305 C 252.494 329.390,253.930 329.389,254.746 329.303 C 255.563 329.217,254.796 329.148,253.041 329.150 C 251.286 329.151,250.618 329.221,251.556 329.305 M264.716 329.305 C 265.654 329.390,267.090 329.389,267.907 329.303 C 268.724 329.217,267.956 329.148,266.201 329.150 C 264.447 329.151,263.778 329.221,264.716 329.305 M173.406 333.727 C 174.983 335.123,178.265 337.510,178.265 337.262 C 178.265 337.165,176.874 336.067,175.174 334.821 C 173.475 333.575,172.679 333.083,173.406 333.727 M94.802 338.285 C 95.012 338.559,96.298 340.264,97.660 342.074 C 99.022 343.883,100.221 345.364,100.325 345.364 C 100.428 345.364,99.232 343.659,97.666 341.575 C 96.100 339.492,94.728 337.787,94.618 337.787 C 94.509 337.787,94.591 338.011,94.802 338.285 M182.253 339.898 C 182.253 340.106,186.409 342.806,188.136 343.720 C 189.939 344.675,188.969 343.824,186.740 342.495 C 185.479 341.743,183.953 340.804,183.350 340.408 C 182.747 340.013,182.253 339.783,182.253 339.898 M189.432 344.351 C 189.432 344.460,190.150 344.916,191.027 345.364 C 191.904 345.812,192.622 346.088,192.622 345.978 C 192.622 345.869,191.904 345.413,191.027 344.965 C 190.150 344.518,189.432 344.241,189.432 344.351 M105.198 351.147 C 107.615 353.934,113.620 359.889,116.663 362.518 C 117.548 363.283,116.564 362.274,114.476 360.277 C 112.388 358.280,108.901 354.781,106.728 352.501 C 104.514 350.178,103.841 349.583,105.198 351.147 M200.388 349.991 C 201.974 350.895,207.068 352.985,207.248 352.805 C 207.327 352.726,205.732 351.962,203.703 351.106 C 199.343 349.268,198.801 349.086,200.388 349.991 M309.870 352.929 C 309.870 353.141,309.646 353.260,309.372 353.193 C 309.098 353.127,309.015 353.150,309.189 353.245 C 309.363 353.340,309.278 353.714,309.002 354.077 C 308.725 354.439,308.987 354.301,309.583 353.769 C 310.772 352.710,310.865 352.542,310.269 352.542 C 310.050 352.542,309.870 352.716,309.870 352.929 M223.181 358.085 C 224.612 358.721,233.344 360.572,234.040 360.386 C 234.543 360.253,234.509 360.201,233.898 360.162 C 233.460 360.135,231.216 359.683,228.913 359.157 C 222.633 357.724,222.176 357.639,223.181 358.085 M291.127 358.556 C 289.701 358.969,289.175 359.219,289.959 359.111 C 291.612 358.882,295.204 357.806,294.317 357.805 C 293.988 357.804,292.552 358.142,291.127 358.556 M301.695 361.191 C 298.787 363.969,298.635 364.162,300.897 362.210 C 302.433 360.886,304.124 359.335,304.656 358.764 C 306.545 356.737,305.233 357.813,301.695 361.191 M284.746 359.920 C 283.539 360.200,283.001 360.432,283.549 360.435 C 284.098 360.439,285.444 360.211,286.540 359.929 C 289.129 359.264,287.609 359.256,284.746 359.920 M237.787 361.192 C 238.170 361.292,238.799 361.292,239.182 361.192 C 239.566 361.092,239.252 361.010,238.485 361.010 C 237.717 361.010,237.403 361.092,237.787 361.192 M278.066 361.192 C 278.450 361.292,279.078 361.292,279.462 361.192 C 279.845 361.092,279.531 361.010,278.764 361.010 C 277.996 361.010,277.682 361.092,278.066 361.192 M240.578 361.591 C 240.962 361.691,241.590 361.691,241.974 361.591 C 242.358 361.491,242.044 361.409,241.276 361.409 C 240.508 361.409,240.194 361.491,240.578 361.591 M275.274 361.591 C 275.658 361.691,276.286 361.691,276.670 361.591 C 277.054 361.491,276.740 361.409,275.972 361.409 C 275.204 361.409,274.890 361.491,275.274 361.591 M243.973 361.997 C 244.469 362.092,245.187 362.089,245.568 361.989 C 245.949 361.889,245.543 361.811,244.666 361.815 C 243.789 361.820,243.477 361.902,243.973 361.997 M271.889 361.997 C 272.385 362.092,273.103 362.089,273.484 361.989 C 273.866 361.889,273.460 361.811,272.582 361.815 C 271.705 361.820,271.393 361.902,271.889 361.997 M248.355 362.402 C 249.068 362.491,250.234 362.491,250.947 362.402 C 251.660 362.314,251.077 362.241,249.651 362.241 C 248.225 362.241,247.642 362.314,248.355 362.402 M266.308 362.403 C 267.025 362.491,268.102 362.490,268.701 362.399 C 269.300 362.308,268.714 362.235,267.398 362.237 C 266.082 362.239,265.591 362.314,266.308 362.403 M256.941 362.806 C 257.990 362.889,259.605 362.888,260.530 362.804 C 261.456 362.720,260.598 362.653,258.624 362.654 C 256.650 362.655,255.893 362.724,256.941 362.806 M122.632 367.464 C 124.383 369.021,127.617 371.429,127.617 371.176 C 127.617 371.088,126.137 369.898,124.327 368.531 C 122.517 367.164,121.755 366.683,122.632 367.464 M293.519 367.943 C 292.532 368.713,291.456 369.629,291.127 369.978 C 290.798 370.327,291.650 369.767,293.021 368.733 C 294.392 367.699,295.513 366.773,295.513 366.677 C 295.513 366.400,295.420 366.459,293.519 367.943 M128.016 371.431 C 128.016 371.541,128.554 372.014,129.212 372.483 C 129.870 372.951,130.409 373.245,130.409 373.135 C 130.409 373.025,129.870 372.552,129.212 372.084 C 128.554 371.615,128.016 371.322,128.016 371.431 M132.602 374.683 C 133.041 375.040,133.759 375.509,134.197 375.724 L 134.995 376.116 134.197 375.466 C 133.759 375.109,133.041 374.641,132.602 374.425 L 131.805 374.034 132.602 374.683 M280.182 377.102 C 276.302 379.476,275.379 380.164,277.567 379.054 C 280.199 377.719,284.775 374.690,283.848 374.898 C 283.794 374.910,282.144 375.902,280.182 377.102 M135.921 376.746 C 136.982 377.626,141.575 380.209,141.575 379.925 C 141.575 379.822,140.543 379.156,139.282 378.445 C 138.021 377.734,136.540 376.888,135.992 376.565 L 134.995 375.977 135.921 376.746 M274.676 380.288 C 273.185 381.097,273.276 381.434,274.776 380.658 C 275.434 380.318,275.972 379.954,275.972 379.850 C 275.972 379.594,275.929 379.608,274.676 380.288 M147.159 383.051 C 147.707 383.364,148.335 383.621,148.554 383.621 C 148.774 383.621,148.504 383.364,147.956 383.051 C 147.408 382.737,146.780 382.481,146.560 382.481 C 146.341 382.481,146.610 382.737,147.159 383.051 M266.800 384.247 C 265.813 384.776,265.184 385.208,265.404 385.208 C 265.623 385.208,266.610 384.776,267.597 384.247 C 268.584 383.719,269.212 383.286,268.993 383.286 C 268.774 383.286,267.787 383.719,266.800 384.247 M152.375 385.402 C 153.777 386.212,159.587 388.502,159.771 388.318 C 159.852 388.237,158.173 387.467,156.039 386.607 C 151.451 384.760,151.012 384.615,152.375 385.402 M260.910 386.741 C 259.096 387.518,257.679 388.221,257.761 388.302 C 257.931 388.473,264.806 385.645,264.806 385.404 C 264.806 385.118,264.256 385.307,260.910 386.741 M176.670 393.619 C 177.218 393.795,178.026 393.938,178.465 393.938 C 179.096 393.938,179.055 393.872,178.265 393.619 C 177.717 393.444,176.909 393.300,176.471 393.300 C 175.839 393.300,175.881 393.366,176.670 393.619 M239.282 393.619 C 238.493 393.872,238.451 393.938,239.083 393.938 C 239.521 393.938,240.329 393.795,240.877 393.619 C 241.667 393.366,241.708 393.300,241.077 393.300 C 240.638 393.300,239.831 393.444,239.282 393.619 M179.496 394.165 C 179.802 394.497,191.175 396.421,192.554 396.375 C 193.140 396.355,191.107 395.929,188.036 395.428 C 184.965 394.927,181.735 394.381,180.857 394.215 C 179.980 394.048,179.367 394.026,179.496 394.165 M231.904 395.027 C 229.272 395.522,227.491 395.947,227.946 395.970 C 228.910 396.019,237.775 394.462,238.040 394.197 C 238.344 393.892,236.871 394.092,231.904 395.027 M224.830 396.294 C 225.326 396.389,226.044 396.386,226.425 396.286 C 226.807 396.186,226.401 396.108,225.523 396.113 C 224.646 396.117,224.334 396.199,224.830 396.294 M195.120 396.697 C 195.726 396.789,196.624 396.786,197.114 396.691 C 197.605 396.597,197.109 396.522,196.012 396.525 C 194.915 396.528,194.514 396.605,195.120 396.697 M220.638 396.696 C 221.241 396.788,222.228 396.788,222.832 396.696 C 223.435 396.605,222.941 396.530,221.735 396.530 C 220.528 396.530,220.035 396.605,220.638 396.696 M199.293 397.097 C 200.001 397.186,201.257 397.187,202.085 397.101 C 202.912 397.014,202.333 396.942,200.798 396.940 C 199.262 396.939,198.585 397.009,199.293 397.097 M215.653 397.098 C 216.366 397.187,217.532 397.187,218.245 397.098 C 218.958 397.010,218.375 396.937,216.949 396.937 C 215.523 396.937,214.940 397.010,215.653 397.098 M208.076 397.490 C 208.569 397.585,209.377 397.585,209.870 397.490 C 210.364 397.395,209.960 397.317,208.973 397.317 C 207.986 397.317,207.582 397.395,208.076 397.490 " stroke="none" fill="#51a2f4" fill-rule="evenodd"></path></g></svg>