<svg width="2500" height="713" viewBox="0 0 24 24" xmlns="http://www.w3.org/2000/svg"><path d="M 23.174 3.468 l -7.416 8.322 a 0.228 0.228 0 0 1 -0.33 0 l -3.786 -3.9 a 0.228 0.228 0 0 1 0 -0.282 L 12.872 6 a 0.228 0.228 0 0 1 0.366 0 l 2.106 2.346 a 0.228 0.228 0 0 0 0.342 0 l 5.94 -8.094 A 0.162 0.162 0 0 0 21.5 0 H 0.716 a 0.174 0.174 0 0 0 -0.174 0.174 v 23.652 A 0.174 0.174 0 0 0 0.716 24 h 22.566 a 0.174 0.174 0 0 0 0.174 -0.174 V 3.6 a 0.162 0.162 0 0 0 -0.282 -0.132 Z M 6.932 21.366 a 5.706 5.706 0 0 1 -4.05 -1.44 a 0.222 0.222 0 0 1 0 -0.288 l 0.882 -1.236 a 0.222 0.222 0 0 1 0.33 -0.036 a 4.338 4.338 0 0 0 2.964 1.158 c 1.158 0 1.722 -0.534 1.722 -1.098 c 0 -1.752 -5.7 -0.552 -5.7 -4.278 c 0 -1.65 1.428 -3 3.756 -3 a 5.568 5.568 0 0 1 3.708 1.242 a 0.222 0.222 0 0 1 0 0.3 l -0.906 1.2 a 0.222 0.222 0 0 1 -0.318 0.036 a 4.29 4.29 0 0 0 -2.706 -0.936 c -0.906 0 -1.41 0.402 -1.41 0.996 c 0 1.572 5.688 0.522 5.688 4.2 c 0.006 1.812 -1.284 3.18 -3.96 3.18 Z m 12.438 -3.432 a 0.192 0.192 0 0 1 -0.192 0.192 h -5.202 a 0.06 0.06 0 0 0 -0.06 0.066 a 1.986 1.986 0 0 0 2.106 1.638 a 3.264 3.264 0 0 0 1.8 -0.6 a 0.192 0.192 0 0 1 0.276 0.042 l 0.636 0.93 a 0.198 0.198 0 0 1 -0.042 0.264 a 4.71 4.71 0 0 1 -2.892 0.9 a 3.726 3.726 0 0 1 -3.93 -3.87 a 3.744 3.744 0 0 1 3.81 -3.852 c 2.196 0 3.684 1.644 3.684 4.05 Z m -3.684 -2.748 a 1.758 1.758 0 0 0 -1.8 1.56 a 0.06 0.06 0 0 0 0.06 0.066 h 3.492 a 0.06 0.06 0 0 0 0.06 -0.066 a 1.698 1.698 0 0 0 -1.812 -1.56 Z" fill="#32CD32" /></svg>