<svg xmlns="http://www.w3.org/2000/svg" width="2500" height="1875" viewBox="0 0 32 32">
<path d="M 30 16 a 14 14 0 1 1 -4.1 -9.9 A 13.956 13.956 0 0 1 30 16 Z" style="fill:#fff"/>
<path d="M 27.9 16 a 11.9 11.9 0 1 1 -3.485 -8.415 A 11.863 11.863 0 0 1 27.9 16 Z" style="fill:#6d9a00"/>
<path d="M 11.66 15.983 a 0.938 0.938 0 0 1 0.977 -0.976 a 0.976 0.976 0 1 1 -0.977 0.976 Z" style="fill:#fff"/>
<path d="M 15.031 15.983 a 0.938 0.938 0 0 1 0.977 -0.976 a 0.976 0.976 0 1 1 -0.977 0.976 Z" style="fill:#fff"/>
<path d="M 18.4 15.983 a 0.938 0.938 0 0 1 0.977 -0.976 a 0.976 0.976 0 1 1 -0.977 0.976 Z" style="fill:#fff"/>
<path d="M 7.619 16.89 V 15.142 A 2.824 2.824 0 0 0 8.5 15 a 1.126 1.126 0 0 0 0.439 -0.441 a 2.1 2.1 0 0 0 0.254 -0.776 a 9.08 9.08 0 0 0 0.055 -1.216 a 10.547 10.547 0 0 1 0.123 -1.97 a 1.847 1.847 0 0 1 0.446 -0.9 a 1.72 1.72 0 0 1 0.81 -0.552 a 4.788 4.788 0 0 1 1.316 -0.131 h 0.363 v 1.437 a 3.177 3.177 0 0 0 -0.977 0.091 a 0.63 0.63 0 0 0 -0.319 0.277 a 3.372 3.372 0 0 0 -0.1 0.941 q 0 0.459 -0.062 1.741 a 4.639 4.639 0 0 1 -0.178 1.169 a 2.435 2.435 0 0 1 -0.367 0.739 a 2.939 2.939 0 0 1 -0.682 0.6 a 2.432 2.432 0 0 1 0.662 0.579 a 2.377 2.377 0 0 1 0.394 0.8 a 5.8 5.8 0 0 1 0.178 1.267 q 0.048 1.209 0.048 1.544 a 3.034 3.034 0 0 0 0.11 0.932 a 0.694 0.694 0 0 0 0.333 0.288 a 2.927 2.927 0 0 0 0.963 0.1 v 1.486 h -0.363 a 3.843 3.843 0 0 1 -1.292 -0.192 A 1.905 1.905 0 0 1 9.82 22.3 a 1.875 1.875 0 0 1 -0.456 -0.9 a 8.724 8.724 0 0 1 -0.117 -1.686 a 8.414 8.414 0 0 0 -0.11 -1.741 a 1.553 1.553 0 0 0 -0.456 -0.834 A 2.106 2.106 0 0 0 7.619 16.89 Z" style="fill:#fff"/>
<path d="M 23.285 17.143 a 1.553 1.553 0 0 0 -0.456 0.834 a 8.414 8.414 0 0 0 -0.11 1.741 A 8.724 8.724 0 0 1 22.6 21.4 a 1.875 1.875 0 0 1 -0.456 0.9 a 1.905 1.905 0 0 1 -0.833 0.521 a 3.843 3.843 0 0 1 -1.292 0.192 h -0.363 V 21.53 a 2.927 2.927 0 0 0 0.963 -0.1 a 0.694 0.694 0 0 0 0.333 -0.288 a 3.034 3.034 0 0 0 0.11 -0.932 q 0 -0.335 0.048 -1.544 A 5.8 5.8 0 0 1 21.29 17.4 a 2.377 2.377 0 0 1 0.394 -0.8 a 2.432 2.432 0 0 1 0.662 -0.579 a 2.939 2.939 0 0 1 -0.682 -0.6 a 2.435 2.435 0 0 1 -0.367 -0.739 a 4.639 4.639 0 0 1 -0.178 -1.169 q -0.062 -1.282 -0.062 -1.741 a 3.372 3.372 0 0 0 -0.1 -0.941 a 0.63 0.63 0 0 0 -0.319 -0.277 a 3.177 3.177 0 0 0 -0.977 -0.091 V 9.016 h 0.363 a 4.788 4.788 0 0 1 1.316 0.131 a 1.72 1.72 0 0 1 0.81 0.552 a 1.847 1.847 0 0 1 0.446 0.9 a 10.547 10.547 0 0 1 0.123 1.97 a 9.08 9.08 0 0 0 0.055 1.216 a 2.1 2.1 0 0 0 0.254 0.776 a 1.126 1.126 0 0 0 0.439 0.441 a 2.824 2.824 0 0 0 0.883 0.144 V 16.89 A 2.106 2.106 0 0 0 23.285 17.143 Z" style="fill:#fff"/>

</svg>