<svg xmlns="http://www.w3.org/2000/svg" width="500" height="500" viewBox="0 0 560 400"><path d="m 90.289 212.072 c 0 -1.902 1.024 -2.195 2.78 -1.171 c 3.219 1.756 6.731 3.658 6.731 3.658 c 0.146 -1.024 1.024 -1.902 2.926 -1.463 c 1.756 0.439 3.804 0.878 3.804 0.878 s -1.024 -2.488 -1.61 -3.512 c -0.878 -2.049 0 -2.926 0.878 -3.219 c 0 0 -1.171 -0.878 -2.049 -1.463 c -1.756 -1.171 -1.317 -2.488 0.293 -3.219 c 2.341 -1.024 5.268 -2.341 5.268 -2.341 c -0.878 -0.585 -2.049 -2.049 -0.732 -3.804 c 1.171 -1.756 2.926 -4.097 2.926 -4.097 h -5.268 c -1.902 0 -2.341 -1.61 -2.341 -2.634 c 0 0 -3.073 2.195 -5.268 3.658 c -1.902 1.317 -3.512 0 -3.219 -2.195 c 0.439 -3.365 0.878 -7.17 0.878 -7.17 c -1.171 0.732 -3.073 0.732 -3.951 -1.171 c -1.463 -2.488 -3.073 -5.853 -3.073 -5.853 s -1.463 3.219 -2.78 5.999 c -0.878 1.902 -2.926 1.902 -3.951 1.171 c 0 0 0.439 3.804 0.878 7.17 c 0.293 2.195 -1.463 3.365 -3.219 2.195 c -2.195 -1.463 -5.268 -3.658 -5.268 -3.658 c 0 1.024 -0.439 2.634 -2.341 2.634 h -5.268 s 1.756 2.488 2.926 4.097 c 1.171 1.756 0.146 3.219 -0.732 3.804 c 0 0 2.926 1.317 5.268 2.341 c 1.756 0.732 2.195 1.902 0.293 3.219 c -0.878 0.585 -2.049 1.463 -2.049 1.463 c 0.878 0.293 1.756 1.171 0.878 3.219 c -0.439 1.024 -1.61 3.512 -1.61 3.512 s 2.049 -0.439 3.804 -0.878 c 1.902 -0.439 2.926 0.439 2.926 1.463 c 0 0 3.365 -1.902 6.585 -3.658 c 1.756 -1.024 2.78 -0.585 2.78 1.171 v 4.39 c 0 2.634 -0.439 5.56 -1.463 7.024 c -12.584 -1.317 -22.973 -11.267 -22.973 -24.436 c 0 -13.608 11.413 -24.729 25.314 -24.729 c 14.047 0 25.314 10.974 25.314 24.583 c 0 12.73 -9.804 23.119 -22.534 24.436 v 3.365 c 14.925 -1.317 26.485 -13.316 26.485 -27.802 c 0.146 -15.364 -13.023 -27.802 -29.265 -27.802 c -16.096 0 -29.265 12.438 -29.265 27.948 c 0 13.608 10.096 24.875 23.705 27.363 c 2.341 0.439 3.658 0.732 4.975 2.195 c 1.463 -2.634 1.756 -8.194 1.756 -11.413 v -5.268 h -0.146 Z" fill="#ff4500"/></svg>